<?xml version="1.0" encoding="utf-8"?>
<!-- Generator: Adobe Illustrator 22.1.0, SVG Export Plug-In . SVG Version: 6.00 Build 0)  -->
<svg version="1.1" id="Layer_1" xmlns="http://www.w3.org/2000/svg" xmlns:xlink="http://www.w3.org/1999/xlink" x="0px" y="0px"
	 viewBox="0 0 224 128" style="enable-background:new 0 0 224 128;" xml:space="preserve">
<style type="text/css">
	.st0{fill:#C0DBDE;}
	.st1{clip-path:url(#SVGID_2_);}
</style>
<title>shape_logo</title>
<g>
	<g id="Layer_2_1_">
		<g id="Layer_1-2">
			<path class="st0" d="M219,7c0,0-87.6-1.3-129.1,0.3c-8.6,0.3-25.7-2.1-31.8,0.9c-1.9,1-1.8,2.6-0.7,3.7c3.4,3.4,12.8,8.6,3,12.4
				c-13,5.2-90.8,19.5-46.2,64.2c19.2,19.2,46.2,28.7,69.5,22.2c22.5-6.2,81.4-42.2,88.3-35.3s-7.2,7.7,13.1,22.2
				C219.2,121.9,219,7,219,7z"/>
			<g>
				<g>
					<defs>
						<path id="SVGID_1_" d="M219.9,8c0-1.1,0-2.7-0.7-3.5s-2.4-0.8-3.9-0.8c-8.2,0.4-33.1,2.5-88.2,1.8
							c-21.9-0.3-19.8-2.4-33.7-2.4c-16.7,0-22.7,13.2-16.3,19.6s36.5,3.2,36.5,11.6S68.5,34.3,57,61.1c-8.5,19.8,14,46.1,33.3,46.1
							s53.9-5.9,65.6,8.2c13.7,16.6,14.9,18.8,30.4,18.8c27.6,0,32.5-75.5,33.4-111.2"/>
					</defs>
					<clipPath id="SVGID_2_">
						<use xlink:href="#SVGID_1_"  style="overflow:visible;"/>
					</clipPath>
					<g class="st1">
						<circle cx="80.3" cy="95.4" r="2.4"/>
						<path d="M68.7,83.9c-1,1.1-0.9,2.8,0.2,3.8c1.1,1,2.8,0.9,3.8-0.2c1-1.1,0.9-2.8-0.2-3.8C71.4,82.7,69.7,82.8,68.7,83.9
							C68.7,83.9,68.7,83.9,68.7,83.9z"/>
						<path d="M59.2,74.1c-0.9,1-0.8,2.4,0.2,3.3c1,0.9,2.4,0.8,3.3-0.2c0.9-1,0.8-2.4-0.2-3.3C61.5,73.1,60,73.2,59.2,74.1
							C59.2,74.1,59.2,74.1,59.2,74.1z"/>
						<path d="M88.9,103.4c-0.6,0.7-0.6,1.8,0.1,2.4s1.8,0.6,2.4-0.1c0.6-0.7,0.6-1.7-0.1-2.4C90.5,102.7,89.5,102.7,88.9,103.4
							C88.9,103.4,88.9,103.4,88.9,103.4z"/>
						<path d="M87.7,83.4c-1.1,1.2-1,3.1,0.2,4.2c1.2,1.1,3.1,1,4.2-0.2c1.1-1.2,1-3.1-0.2-4.2C90.8,82.1,88.9,82.2,87.7,83.4
							C87.8,83.4,87.7,83.4,87.7,83.4z"/>
						<path d="M78.1,73.9c-1.1,1.2-1,3.1,0.3,4.2c1.2,1.1,3.1,1,4.2-0.3c1.1-1.2,1-3.1-0.2-4.2C81.1,72.6,79.2,72.7,78.1,73.9
							C78.1,73.9,78.1,73.9,78.1,73.9z"/>
						<path d="M68.6,64.2c-1.3,1-1.5,2.9-0.5,4.2s2.9,1.5,4.2,0.5c1.3-1,1.5-2.9,0.5-4.2C71.8,63.4,69.9,63.2,68.6,64.2
							C68.6,64.2,68.6,64.2,68.6,64.2z"/>
						<path d="M59.3,54.4c-1.2,0.9-1.4,2.6-0.5,3.8c0.9,1.2,2.6,1.4,3.8,0.5c1.2-0.9,1.4-2.6,0.5-3.8c0,0,0,0,0,0
							C62.1,53.7,60.4,53.5,59.3,54.4z"/>
						<path d="M98.1,93c-1.2,0.9-1.4,2.6-0.5,3.8c0.9,1.2,2.6,1.4,3.8,0.5c1.2-0.9,1.4-2.6,0.5-3.8c0,0,0,0,0,0
							C101,92.3,99.3,92.1,98.1,93z"/>
						<path d="M107.5,82.8c-1.5,1.1-1.7,3.2-0.6,4.7c1.1,1.5,3.2,1.7,4.7,0.6s1.7-3.2,0.6-4.7c0,0,0,0,0,0
							C111.1,81.9,109,81.7,107.5,82.8z"/>
						<path d="M117,92.4c-1.5,1.1-1.7,3.3-0.6,4.7c1.1,1.5,3.3,1.7,4.7,0.6c1.5-1.1,1.7-3.3,0.6-4.7C120.6,91.6,118.5,91.3,117,92.4
							C117,92.4,117,92.4,117,92.4z"/>
						<path d="M127,102.6c-1.3,1-1.5,2.9-0.5,4.2s2.9,1.5,4.2,0.5c1.3-1,1.5-2.9,0.5-4.2C130.2,101.8,128.4,101.6,127,102.6
							C127,102.6,127,102.6,127,102.6z"/>
						<path d="M97.7,73.2c-1.5,1.2-1.8,3.3-0.6,4.8c1.2,1.5,3.3,1.8,4.8,0.6s1.8-3.3,0.6-4.8c0,0,0,0,0,0
							C101.3,72.3,99.2,72,97.7,73.2C97.7,73.2,97.7,73.2,97.7,73.2z"/>
						<path d="M88,62.9c-1.5,1.2-1.8,3.3-0.6,4.8c1.2,1.5,3.3,1.8,4.8,0.6s1.8-3.3,0.6-4.8c0,0,0,0,0,0C91.6,62.1,89.5,61.8,88,62.9
							z"/>
						<path d="M78.2,53.4c-1.5,1.2-1.8,3.3-0.6,4.8c1.2,1.5,3.3,1.8,4.8,0.6s1.8-3.3,0.6-4.8c0,0,0,0,0,0
							C81.8,52.5,79.7,52.2,78.2,53.4z"/>
						<path d="M87.6,43.5c-1.7,1.4-2,3.9-0.6,5.6c1.4,1.7,3.9,2,5.6,0.6c1.7-1.4,2-3.8,0.7-5.6C91.9,42.4,89.4,42.1,87.6,43.5
							C87.7,43.4,87.6,43.5,87.6,43.5z"/>
						<path d="M69.9,43.2c-1.7,1.4-2,3.9-0.6,5.6c1.4,1.7,3.9,2,5.6,0.6c1.7-1.4,2-3.8,0.7-5.6C74.2,42.1,71.7,41.8,69.9,43.2
							C70,43.1,69.9,43.2,69.9,43.2z"/>
						<path d="M97.3,52.9c-1.7,1.4-2,3.9-0.6,5.6c1.4,1.7,3.9,2,5.6,0.6c1.7-1.4,2-3.8,0.7-5.6C101.6,51.8,99.1,51.5,97.3,52.9
							C97.3,52.8,97.3,52.9,97.3,52.9z"/>
						<path d="M107.1,63c-1.7,1.4-2,3.9-0.6,5.6c1.4,1.7,3.9,2,5.6,0.6c1.7-1.4,2-3.8,0.7-5.6C111.4,62,108.9,61.6,107.1,63
							C107.2,63,107.1,63,107.1,63z"/>
						<path d="M116.9,72.5c-1.7,1.4-2,3.9-0.6,5.6c1.4,1.7,3.9,2,5.6,0.6c1.7-1.4,2-3.8,0.7-5.6C121.2,71.5,118.7,71.1,116.9,72.5
							C117,72.5,116.9,72.5,116.9,72.5z"/>
						<path d="M126.4,82.3c-1.7,1.4-2,3.9-0.7,5.6c1.4,1.7,3.9,2,5.6,0.7c1.7-1.4,2-3.8,0.7-5.6C130.7,81.2,128.2,80.9,126.4,82.3
							C126.4,82.2,126.4,82.3,126.4,82.3z"/>
						<path d="M136.4,92.2c-1.6,1.3-1.9,3.6-0.7,5.2c1.3,1.6,3.6,1.9,5.2,0.7c1.6-1.3,1.9-3.6,0.7-5.2c0,0,0,0,0,0
							C140.3,91.2,138,90.9,136.4,92.2z"/>
						<path d="M146.2,102.9c-0.9,1.2-0.8,2.8,0.4,3.8s2.8,0.8,3.8-0.4s0.8-2.8-0.4-3.8S147.1,101.7,146.2,102.9z"/>
						<path d="M155.2,112.5c-1.2,1.4-0.9,3.6,0.5,4.7s3.6,0.9,4.7-0.5c1.2-1.4,0.9-3.6-0.5-4.7C158.4,110.9,156.3,111.1,155.2,112.5
							C155.2,112.5,155.2,112.5,155.2,112.5z"/>
						<path d="M165.3,122.4c-1,1.2-0.8,3.1,0.4,4.1c1.2,1,3.1,0.8,4.1-0.4c1-1.2,0.8-3.1-0.4-4.1C168.1,121,166.3,121.2,165.3,122.4
							z"/>
						<path d="M188.6,125.9c1-1.3,0.8-3.2-0.5-4.2c-1.3-1-3.2-0.8-4.2,0.5c-1,1.3-0.8,3.1,0.4,4.2
							C185.6,127.4,187.5,127.2,188.6,125.9C188.6,125.9,188.6,125.9,188.6,125.9z"/>
						<path d="M174.5,112.5c-1.2,1.4-0.9,3.6,0.5,4.7c1.4,1.2,3.6,0.9,4.7-0.5s0.9-3.6-0.5-4.7c0,0,0,0,0,0
							C177.8,110.9,175.7,111.1,174.5,112.5C174.5,112.5,174.5,112.5,174.5,112.5z"/>
						<path d="M170.1,101.4c-1.7-1.4-4.2-1.1-5.6,0.6c-1.4,1.7-1.1,4.2,0.6,5.6c1.7,1.4,4.2,1.1,5.6-0.6
							C172,105.4,171.8,102.9,170.1,101.4C170.1,101.5,170.1,101.4,170.1,101.4z"/>
						<path d="M160.1,92.2c-1.6-1.3-3.9-1-5.2,0.6c-1.3,1.6-1,3.9,0.6,5.2c1.6,1.3,3.9,1,5.2-0.5C161.9,95.8,161.7,93.5,160.1,92.2
							C160.1,92.2,160.1,92.2,160.1,92.2z"/>
						<path d="M150.8,82.3c-1.7-1.4-4.2-1.1-5.6,0.6c-1.4,1.7-1.1,4.2,0.6,5.6c1.7,1.4,4.2,1.1,5.6-0.6
							C152.8,86.3,152.6,83.8,150.8,82.3C150.9,82.4,150.8,82.3,150.8,82.3z"/>
						<path d="M141.3,72.4c-1.8-1.5-4.5-1.2-5.9,0.7c-1.5,1.8-1.2,4.5,0.7,5.9c1.8,1.4,4.4,1.2,5.9-0.6
							C143.4,76.6,143.2,74,141.3,72.4C141.4,72.5,141.4,72.4,141.3,72.4z"/>
						<path d="M131.6,62.8c-1.9-1.5-4.6-1.2-6.1,0.7c-1.5,1.9-1.2,4.6,0.7,6.1c1.9,1.5,4.6,1.2,6.1-0.6
							C133.8,67.1,133.5,64.3,131.6,62.8C131.6,62.8,131.6,62.8,131.6,62.8z"/>
						<path d="M121.9,53.1c-1.9-1.5-4.6-1.2-6.1,0.7c-1.5,1.9-1.2,4.6,0.7,6.1c1.9,1.5,4.6,1.2,6.1-0.6
							C124,57.4,123.7,54.6,121.9,53.1C121.9,53.1,121.9,53.1,121.9,53.1z"/>
						<path d="M112.3,43.3c-1.9-1.5-4.6-1.2-6.1,0.7c-1.5,1.9-1.2,4.6,0.7,6.1c1.9,1.5,4.6,1.2,6.1-0.6
							C114.5,47.5,114.2,44.8,112.3,43.3C112.4,43.3,112.3,43.3,112.3,43.3z"/>
						<path d="M82.5,14.3c-1.9-1.5-4.6-1.2-6.1,0.7c-1.5,1.9-1.2,4.6,0.7,6.1c1.9,1.5,4.6,1.2,6.1-0.6
							C84.7,18.6,84.4,15.8,82.5,14.3C82.5,14.3,82.5,14.3,82.5,14.3z"/>
						<path d="M92.7,5c-1.6-1.3-3.9-1-5.2,0.5c-1.3,1.6-1,3.9,0.5,5.2s3.9,1,5.2-0.5c0,0,0,0,0,0C94.5,8.6,94.3,6.3,92.7,5z"/>
						<path d="M102.9,20.2c1.4-1.7,1.1-4.2-0.6-5.6c-1.7-1.4-4.2-1.1-5.6,0.6c-1.4,1.7-1.1,4.2,0.6,5.6
							C98.9,22.2,101.4,21.9,102.9,20.2C102.9,20.2,102.9,20.2,102.9,20.2z"/>
						<path d="M92.9,30.4c1.4-1.7,1.1-4.2-0.6-5.6c-1.7-1.4-4.2-1.1-5.6,0.6c-1.4,1.7-1.1,4.2,0.6,5.6
							C88.9,32.4,91.4,32.2,92.9,30.4C92.9,30.5,92.9,30.5,92.9,30.4z"/>
						<path d="M112.3,23.9c-1.9-1.5-4.6-1.2-6.1,0.7c-1.5,1.9-1.2,4.6,0.7,6.1c1.9,1.5,4.6,1.2,6.1-0.6
							C114.5,28.2,114.2,25.5,112.3,23.9C112.3,23.9,112.3,23.9,112.3,23.9z"/>
						<path d="M116.2,40.6c2,1.6,5,1.3,6.6-0.7c1.6-2,1.3-5-0.7-6.6c-2-1.6-5-1.3-6.6,0.7C113.8,36,114.1,38.9,116.2,40.6
							C116.1,40.5,116.1,40.6,116.2,40.6z"/>
						<path d="M125.5,50.9c2.3,1.9,5.7,1.5,7.6-0.8c1.9-2.3,1.5-5.7-0.8-7.6c-2.3-1.9-5.7-1.5-7.6,0.8
							C122.8,45.6,123.2,49,125.5,50.9C125.5,50.9,125.5,50.9,125.5,50.9z"/>
						<path d="M141.6,52.9c-2-1.6-5-1.3-6.6,0.7c-1.6,2-1.3,5,0.7,6.6c2,1.6,5,1.3,6.6-0.7c0,0,0,0,0,0
							C144,57.5,143.6,54.5,141.6,52.9z"/>
						<path d="M151.2,62.5c-2-1.6-5-1.3-6.6,0.7s-1.3,5,0.7,6.6c2,1.6,5,1.3,6.6-0.7C153.6,67.1,153.3,64.2,151.2,62.5
							C151.3,62.5,151.3,62.5,151.2,62.5z"/>
						<path d="M160.5,72.3c-1.9-1.5-4.6-1.2-6.1,0.6c-1.5,1.9-1.2,4.6,0.6,6.1c1.9,1.5,4.6,1.2,6.1-0.6
							C162.7,76.6,162.4,73.8,160.5,72.3C160.5,72.3,160.5,72.3,160.5,72.3z"/>
						<path d="M170.1,82.3c-1.7-1.4-4.2-1.1-5.6,0.6c-1.4,1.7-1.1,4.2,0.6,5.6c1.7,1.4,4.2,1.1,5.6-0.6
							C172,86.3,171.8,83.8,170.1,82.3C170.1,82.4,170.1,82.3,170.1,82.3z"/>
						<path d="M180,91.8c-1.8-1.5-4.4-1.2-5.9,0.6s-1.2,4.4,0.6,5.9c1.8,1.5,4.4,1.2,5.9-0.6C182.1,95.9,181.8,93.3,180,91.8z"/>
						<path d="M189.3,101.7c-1.7-1.4-4.2-1.1-5.6,0.6c-1.4,1.7-1.1,4.2,0.6,5.6c1.7,1.4,4.2,1.1,5.6-0.6
							C191.3,105.7,191.1,103.1,189.3,101.7C189.4,101.7,189.3,101.7,189.3,101.7z"/>
						<path d="M193.5,112.1c-1.3,1.6-1,3.9,0.5,5.2s3.9,1,5.2-0.5c1.3-1.6,1-3.9-0.5-5.2c0,0,0,0,0,0
							C197.1,110.2,194.8,110.5,193.5,112.1z"/>
						<path d="M107.7,102.4c-1.2,0.9-1.3,2.6-0.4,3.8c0.9,1.2,2.6,1.3,3.8,0.4c1.1-0.9,1.3-2.6,0.4-3.7
							C110.6,101.7,108.9,101.5,107.7,102.4C107.7,102.4,107.7,102.4,107.7,102.4z"/>
						<path d="M132.6,31.9c2.5-1.9,2.9-5.5,1-8c-1.9-2.5-5.5-2.9-8-1s-2.9,5.5-1,8c0,0,0,0,0,0C126.6,33.4,130.1,33.8,132.6,31.9z"
							/>
						<path d="M116.5,13.9c-2.1,1.6-2.4,4.6-0.8,6.6c1.6,2.1,4.6,2.4,6.6,0.8c2.1-1.6,2.4-4.6,0.8-6.6c0,0,0,0,0,0
							C121.5,12.6,118.5,12.3,116.5,13.9z"/>
						<path d="M112.3,11.1c1.9-1.5,2.2-4.2,0.8-6.1c-1.5-1.9-4.2-2.2-6.1-0.8c-1.9,1.5-2.2,4.2-0.8,6.1
							C107.6,12.2,110.4,12.6,112.3,11.1z"/>
						<path d="M144.9,42.3c-2.4,1.9-2.9,5.4-1,7.8c1.9,2.4,5.4,2.9,7.8,1c2.4-1.9,2.9-5.4,1-7.8C150.8,40.8,147.3,40.4,144.9,42.3
							C144.9,42.3,144.9,42.3,144.9,42.3z"/>
						<path d="M161.6,60.3c2.3-1.8,2.8-5.2,0.9-7.6s-5.2-2.8-7.6-0.9c-2.3,1.8-2.8,5.2-0.9,7.6c0,0,0,0,0,0
							C155.9,61.7,159.3,62.2,161.6,60.3z"/>
						<path d="M172,62.3c-1.8-2.3-5.2-2.8-7.6-0.9s-2.8,5.2-0.9,7.6c1.8,2.3,5.2,2.8,7.6,0.9c0,0,0,0,0,0
							C173.4,68.1,173.8,64.7,172,62.3z"/>
						<path d="M180.5,79.9c2.2-1.7,2.5-4.9,0.8-7c-1.7-2.2-4.9-2.5-7-0.8c-2.1,1.7-2.5,4.8-0.9,7C175.1,81.2,178.2,81.6,180.5,79.9
							C180.4,79.9,180.5,79.9,180.5,79.9z"/>
						<path d="M183.9,81.7c-2.1,1.6-2.4,4.6-0.8,6.6s4.6,2.4,6.6,0.8c2.1-1.6,2.4-4.6,0.8-6.6c0,0,0,0,0,0
							C188.9,80.5,186,80.2,183.9,81.7z"/>
						<path d="M193.9,91.6c-1.9,1.5-2.2,4.2-0.8,6.1c1.5,1.9,4.2,2.2,6.1,0.8c1.9-1.5,2.2-4.2,0.8-6.1c0,0,0,0,0,0
							C198.5,90.5,195.8,90.2,193.9,91.6z"/>
						<path d="M203.6,82.3c-1.7,1.4-2,3.9-0.7,5.6c1.4,1.7,3.9,2,5.6,0.7c1.7-1.4,2-3.8,0.7-5.6C207.9,81.2,205.4,80.9,203.6,82.3
							C203.7,82.2,203.6,82.3,203.6,82.3z"/>
						<path d="M217.5,78.9c2-1.6,2.4-4.5,0.8-6.6s-4.5-2.4-6.6-0.8c-2,1.6-2.4,4.5-0.8,6.6C212.5,80.1,215.5,80.5,217.5,78.9
							C217.5,78.9,217.5,78.9,217.5,78.9z"/>
						<path d="M199.5,79.8c2.1-1.6,2.4-4.6,0.8-6.6s-4.6-2.4-6.6-0.8c-2.1,1.6-2.4,4.6-0.8,6.6c0,0,0,0,0,0
							C194.5,81,197.4,81.4,199.5,79.8z"/>
						<path d="M208.4,100.9c-1.7-1.4-4.2-1.1-5.6,0.6c-1.4,1.7-1.1,4.2,0.6,5.6c1.7,1.4,4.2,1.1,5.6-0.6
							C210.4,104.8,210.1,102.3,208.4,100.9C208.4,100.9,208.4,100.9,208.4,100.9z"/>
						<circle cx="138.7" cy="36.9" r="5.7"/>
						<path d="M183.7,61.4c-2.3,1.8-2.8,5.2-0.9,7.6s5.2,2.8,7.6,0.9c2.3-1.8,2.8-5.2,0.9-7.6c0,0,0,0,0,0
							C189.5,60,186.1,59.5,183.7,61.4z"/>
						<path d="M335.3-6c-1.5-1.1-5.8-0.2-7.8-0.7c-0.5-3.1-0.4-6.2,0.5-9.2l7.6-0.2l1.4-1.4v-7.1l-0.9-1.1h-6.9l-1.6-1.9
							c-0.1-1.9-0.1-3.8-0.2-5.8l1.6-1.6c1.4-1,5.9-0.4,7.8-0.7c0.1-2.9,0.2-5.8,0.2-8.8l-0.7-0.5l-7.2-0.2c-1.6-2-2-3.6-1.8-7.6
							l1.6-1.6c1.5-1.1,5.8-0.2,7.8-0.7v-9c-1.7-0.8-5.4-0.5-7.8-0.5l-1.6-1.8c-0.3-7.6,1-8.2,8.5-7.8c1.2-1.8,1.3-4.8,1.2-8.1
							l-1.4-1.2c-1.3-0.9-5.3-0.5-7.4-0.5c-1.3-1.9-1-6.2-0.9-9.4l-7.6-0.2l-2.1-1.8c0.1-2.3,0.2-4.6,0.2-6.9
							c1.8-1.2,6.3-0.7,8.8-1.4c0.6-2.3,0.8-4.7,0.7-7.2c-2.1-2-5.2-2.5-9.5-1.8c-0.1,2.8-0.2,5.5-0.2,8.3c-5.9,4.2-11.8-0.9-9-7.6
							c1.8-1.2,5.4-1,8.5-0.9c0.7-1.9,0.5-5.4,0.5-8.1l-1.4-1.2c-1.4-1-5.8-0.5-8.1-0.5l-0.2-8.1l-1.4-1.1c-1.3-1-5.7-0.5-7.8-0.5
							c-0.8-1.9,0.3-6.6-0.9-8.3l-1.2-1.4l-7.8,0.2c-0.1,2.6-0.2,5.2-0.2,7.8c-1.8,1.4-3.5,1.7-7.2,1.6c-1-0.6-1.8-1.5-2.3-2.5
							c-0.8-1.8,0-5.2,0.5-6.4c1.8-1.1,5.9-0.8,8.8-0.7l0.2-7.8l-1.9-1.8c-2.5,0-5.4-0.1-7.1,0.5c-1,1.6-0.8,5.2-0.7,7.8l-1.6,1.2
							l-6,0.2c-0.6-0.7-1.2-1.4-1.8-2.1v-7.1l0.2-0.5h8.1c1.2-1.7,1.3-4.2,1.1-7.4c-0.9-0.8-1.3-1.6-2.5-2.1
							c-1.5-0.7-4.5-0.1-5.8,0.2c-1.5,2-1.5,5.2-1.4,9c-3,0.6-6.1,0.5-9-0.2c-3.1-6.2,2.8-11.6-9.9-9c-0.8,1.7-0.5,5.4-0.5,7.8
							c-2.5,1.7-5.7,2.1-8.5,0.9c-1.2-1.6-1.8-6-0.9-8.8l-9.2-0.5c-1.3-0.9-0.8-5.5-0.7-7.6l-2-1.6l-5.5-0.2l-0.5,0.2
							c-1.7,2.3-1.3,5.4-1.9,9.2h-8.8c-1.3-0.9-0.8-5.5-0.7-7.6c-2-1.5-3.4-2-7.4-1.9l-2.1,2.1v6.9c1,1.4,6.5,0.8,8.8,0.7
							c0.9,1.7,0.8,4.9,0.7,7.6L209-152l-5.3,0.2l-2.1-1.6v-8.1l-9.5,0.2c-0.8,1.7-0.5,5.4-0.5,7.8l-1.6,1.2c-1.4,1.1-5.9,0.5-7.4,0
							c-1-1.9-0.5-6.3-1.2-8.5c-2.3-0.6-4.7-0.8-7.1-0.7l-1.1,1.1c-1.5,1.3-1,5.8-0.9,8.5c-2.9,0-6.9-0.3-9,0.5
							c-1,1.7-0.8,5.3-0.7,8.1c-1.8,1.3-6.8,1.4-9.5,1.2c-0.4,2.9,0.7,8-1.6,9.2c-1.2,0.9-6.4,0.7-8.1,0.2c-0.1,2.8-0.1,5.5-0.2,8.3
							l-1.4,1.2c-1.5,1.1-6.9,0.4-8.5,0.5c1.1,1.9,0.1,8-0.9,9.5l-8.3,0.5c-0.2,2.2,0.4,7.7-0.9,9c-1.8,1.1-6.1-0.1-7.8,0.9
							s-1.5,6.4-0.9,8.7l0.2,0.5h7.6c1.4,1.9,1.7,3.7,1.6,7.4l-2.3,2.2c-1.8,0.8-5.9,0.2-7.1-0.5c-0.2-2.8-0.3-5.5-0.5-8.3
							c-1.1-1.2-5.2-0.8-7.4-0.7l-1.8,2.3c-0.1,1.8-0.2,3.5-0.2,5.3c0.5,0.6,0.9,1.2,1.4,1.8l7.4,0.5c1.2,0.8,1.6,6.9,0.5,8.3
							l-0.7,1.2h-7.4c-1.3,1.9-1.6,6.5-0.7,9.2c1.7,0.8,5.2,0.5,7.6,0.5c0.4,0.5,0.8,1.1,1.2,1.6c0.8,1.1,0.5,4.2,0.5,6l-1.4,1.8
							l-8.1,0.5c-0.3,2-0.9,7.3,0.2,8.8c1.9,2.3,7.2-0.7,8.8,2.3c1,1.3,0.5,5.5,0,6.9c-1.8,1.3-5,1.3-8.3,1.1
							c-1.3,2.1-1.2,7.1-0.2,9.5l7.6,0.2c1.4,1.9,1.5,4.6,1.4,8.3l-1.2,1.1l-6.7,0.2l-1.6,1.9v6.2c1.8,1.4,6,2.4,9.5,1.4
							c-0.2,1.6,2.5,8.3,0.4,9.7c2.1-1.3,6.3-1.3,8.5,0.9c4,4-0.1,6.6,1.5,8.2s5.5-2,8.3,0.8c3.2,3.2-0.2,7.3,1.2,8.7
							s4.8-1.7,8.3,1.7c3.1,3.1,0.8,8.7-2,8.7c0.4,0.3,2.7,2.2,3,2.6c1-3.4,5.7-3.7,7.7-1.7c3.3,3.3,0.6,6.7,2.1,8.3
							s6.2-1.2,8.3,1.2c2.3,2.7-0.9,6.1,1.4,8.4s5.9-1.6,8.3,0.8c3.4,3.4,0.4,6.8,2.8,9.2c2,2,5.7,1.8,7.3-0.4
							c1.7-2.4-0.6-5.3,1.3-7.3c2-2.2,5.3-2.5,7.6-0.7c3.3,2.4,0.1,6.2,1.9,8s5.2-2.8,8.9,0.9s-0.9,7.3,1.2,9.7
							c1.6,2,4.6,2.3,6.6,0.7c2.8-2.6-1.4-8.8,3.2-10.7c3.3-1.4,6.3,0,7.7,0.5c1.1,1.7,1,5.4,0.9,8.3c1.9,1.3,6.2,1.5,9,0.7
							c1-1.6,0.8-5.2,0.7-7.8c2.1-1.6,6.5-1.8,9.4-0.7c0.1,2.5,0.2,5.1,0.2,7.6c2.6,1.5,5.7,1.8,8.5,0.9c1.3-1.8,1.3-5.1,1.2-8.5
							c1.9-1.1,6.4-0.8,9.4-0.7l0.2-0.2v-7.4l1.6-1.6c1.4-1.1,5.9-0.4,7.4,0c1,1.7,0,6.4,1.2,8.1c1,1.6,4.7,1.3,7.4,1.2l1.4-1.6
							c0.8-1,0.9-6.2,0.2-7.6c-1.2-1.1-6-0.5-8.1-0.5c-1.3-1.8-1.5-3.8-1.4-7.1c0.8-1,1.2-1.8,2.5-2.3l5.1-0.2l2.1,1.8
							c0.1,2.5,0.1,5.1,0.2,7.6h8.3c1.4-2,0.8-6.4,1.6-9.2l8.1-0.5c1.9-1.1,1-6.2,1.4-8.8c1.9-1.1,6.2-0.5,8.8-0.9
							c1-1.9,0-6.7,1.2-8.8c1.4-1.6,6.3,0.1,8.1-1.1c2.2-1.4,0.5-6.1,1.4-8.8c1.2-1.1,6.3-0.4,8.1-0.7c1.4-1.9,1.5-4.5,1.4-8.1
							l-0.9-1.4h-7.2l-1.4-1.8c-0.1-1.9-0.1-3.7-0.2-5.5l2.1-2.1h7.6V2l1.2,0.9l6.2,0.2l2.3-2.3C337.1-2.2,337.2-4.9,335.3-6z
							 M262.3-142h4.6c0.9,0.7,1.6,1.5,2.1,2.5v4.1C266.1-128.1,254.8-136.2,262.3-142L262.3-142z M262-42.2l2.1-1.2
							c1.4,0,2.6,0.8,3.2,2.1c-0.2,0.9-0.3,1.8-0.5,2.8l-1.8,1.1c-2.1-0.1-2.8-0.8-3.5-2.3C261.7-40.5,261.9-41.4,262-42.2L262-42.2
							z M261.6-60.8l2.1-1.8l2.3,0.5c1.3,0.7,1.8,2.4,1.1,3.7c-0.5,1.1-1.1,1.2-2.1,1.8C262.4-56.8,261.4-58,261.6-60.8L261.6-60.8z
							 M263.9-24.2c4.5,0.2,4.7,4.7,1.6,6.5l-2.3-0.2c-0.9-0.4-1.5-1.2-1.8-2.1c0.1-0.8,0.2-1.7,0.2-2.5L263.9-24.2z M265.3-75.8
							c-2.8,0-3.5-1-4.2-3l0.7-2.5l2.1-1.2l2.8,0.7l1.1,2.1C267.7-77.5,266.9-76.6,265.3-75.8L265.3-75.8z M263.2-95
							c-1.9-0.6-3-2.7-2.4-4.7c0-0.1,0-0.1,0.1-0.2c0.6-1.4,1.4-1.7,2.5-2.5c1.2,0,2.4,0.2,3.5,0.7C268.9-99,268.2-93.4,263.2-95
							L263.2-95z M261.1-3c0.6-1.4,1.5-1.6,2.8-2.3c1.7,0.1,2.8,0.5,3.5,1.6c0.9,1,1.1,2.5,0.5,3.7c-0.5,1.2-1.7,2.1-3,2.1
							c-2.2,0.7-3.3-1.5-4.2-3C260.8-1.6,261-2.3,261.1-3L261.1-3z M263.4,13.6c6.1-0.2,6.9,7.2,2.1,8.5
							C259.3,23.8,259.1,16,263.4,13.6L263.4,13.6z M260-117.4c0.2-3.4,1.5-3.9,3.9-5.1c3,0.1,4.3,1.6,5.1,4.6
							C267.2-112.3,262.2-112.8,260-117.4z M243.6-142c3.3-0.1,4.5,0.7,5.8,2.5c1.1,4.1-2,8.8-6.7,6.5
							C238.3-135.2,241-140.3,243.6-142z M244.7-42.4l2.1,0.7c0.3,0.9,0.3,1.9,0,2.8c-1,0.8-2.4,0.8-3.5,0c-0.1-0.8-0.1-1.5-0.2-2.3
							L244.7-42.4z M243.1-58.8v-1.6c0.5-1,0.9-1,1.8-1.6c1.3,0.1,2.3,1.2,2.3,2.5c-0.6,1.3-1.2,2.1-3,1.6L243.1-58.8z M244.5-23.5
							l1.4,0.2h0.5c1.6,2.1,1.7,4.1-1.1,5.1l-2.3-0.9c-0.3-1.2-0.6-2,0-3C243.4-23,243.8-23,244.5-23.5z M246.1-76.8
							c-0.8,0.4-1.8,0.3-2.5-0.2c-1.1-0.6-1.2-1.5-1.1-3.2l1.6-1.6h2.1l1.4,1.2v2.6L246.1-76.8z M244.5-4.9l1.9,0.5
							c1.9,0.8,2.1,2.5,1.6,4.6l-2.3,1.6l-2.8-0.7c-0.7-1.1-1.4-2-0.9-3.7C242.6-4,243.3-4.1,244.5-4.9z M245.9-95.2
							c-4.1,0.2-4.7-2.6-3.7-5.5l2.8-1.4c1.3,0.2,2.4,0.9,3.2,2C248.8-97.4,247.8-96.1,245.9-95.2L245.9-95.2z M247.3-114.4
							c-1.6,0.5-3.3,0.4-4.8-0.2c-2-2.7-1.7-5,0.7-7.1l1.8-0.5l2.8,0.9c0.9,1.2,2,3.2,0.9,5.1L247.3-114.4z M241.7,15.4l2.8-1.6
							c3.1,0.1,6.2,3.6,3.7,6.2c-0.8,1.7-2.9,2.1-4.8,1.4c-1.2-0.6-1.6-1.5-2.3-2.5L241.7,15.4z M244.7,32.5
							c1.6,0.4,3.1,1.2,4.4,2.3c1.2,4.4-2.1,9.3-6.7,6.5S241.5,33.9,244.7,32.5L244.7,32.5z M233-151.7l4.8,0.2
							c1,0.4,1.8,1.3,2.1,2.3v3.9c-1.7,5.5-11.5,3.3-9.2-3.7C231.2-150.1,232-151,233-151.7z M234.8-32.5l1.8,0.2
							c0.2,0.4,0.5,0.8,0.7,1.1c-0.2,1.8-0.6,2-2.1,2.5C233.1-29.6,233-31.1,234.8-32.5z M234.1-48.9v-2.3l0.9-0.5l1.1,0.2
							c0.2,0.6,0.5,1.2,0.7,1.8v0.2c-0.7,0.5-1.2,0.9-2.3,0.5L234.1-48.9z M235.3-67.3c-1.1-0.4-1.4-0.5-1.8-1.6v-1.6l2.1-1.2
							c1,0.4,1.8,1.2,2.1,2.3C236.8-68.1,236.8-67.9,235.3-67.3z M234.4-13.8h2.1c1.2,0.8,1.8,2.3,1.6,3.7l-1.6,1.4l-2.1,0.2
							c-1.3-1.1-2.6-2.5-1.1-4.1C233.6-13.1,234-13.5,234.4-13.8z M236-86h-1.6l-1.6-1.8c-0.1-0.7-0.1-1.4-0.2-2.1l2.1-1.8
							c2.4,0,2.8,0.8,3.7,2.3C238.4-87.9,237.5-86.5,236-86z M234.8,4.6c1.2,0.1,2.3,0.5,3.2,1.2c0.5,1.2,0.7,2.4,0.7,3.7
							c-1.4,1.7-2.5,2.6-5.3,1.8c-0.9-1.1-2-2.1-1.4-4.1C232.7,5.6,233.4,5.4,234.8,4.6z M238.5-106.3l-2.1,1.6l-2.7-0.4
							c-1.3-0.6-1.4-1.4-2.1-2.5c-0.1-1.6,0.7-3.1,2.1-3.9l1.4-0.5l2.5,0.7C238.8-110,239.1-108,238.5-106.3z M233.4,23.7l1.4-0.5
							c3.2,0.1,4,1.7,4.8,4.1c-0.4,1.4-1.1,2.8-2.1,3.9c-1.7,0.5-3.5,0.3-5.1-0.4c-0.9-1.2-2.1-3.2-0.9-5.1L233.4,23.7z
							 M236.4-123.4c-1.5,0.1-3.1-0.3-4.4-1.2c-1.7-3.9-0.8-5.9,2.8-7.6c2.2,0,4.2,1.4,4.8,3.5C239.7-125.5,238.6-124.3,236.4-123.4
							L236.4-123.4z M221.7-161.4h8.1c0.9,1.6,0.8,4.9,0.7,7.6c-2.2,1.8-7.7,3.7-9.4-0.2C220.1-156.1,220.8-160.3,221.7-161.4
							L221.7-161.4z M225.6-58.3l-1.4-0.9c0.1-0.5,0.2-0.9,0.2-1.4l1.2-0.7l1.4,0.9C226.9-58.9,226.6-58.9,225.6-58.3L225.6-58.3z
							 M226.7-40.6c-0.1,0.4-0.1,0.8-0.2,1.1l-1.4,0.2l-0.7-0.7c0.1-0.2,0.2-0.5,0.2-0.7l0.7-0.9l1.1,0.2
							C226.6-41.1,226.7-40.8,226.7-40.6L226.7-40.6z M225.1-23.1l1.6,0.5c0.8,0.5,1,1,1.1,2.3l-1.6,1.4c-1.8,0.8-2.9-0.8-2.8-2.8
							L225.1-23.1z M226.3-77.1c-1.1,0.4-2.3-0.1-2.7-1.1c0-0.1-0.1-0.1-0.1-0.2c-0.1-0.5-0.1-1.1-0.2-1.6l1.9-1.6
							c1.3,0.1,1.8,0.3,2.3,1.2l0.7,1.4C227.5-78,227.5-77.5,226.3-77.1L226.3-77.1z M225.1-4.7l2.5,0.7c0.9,1.3,1.1,2.9,0.5,4.4
							L226,1.3c-0.9,0.3-1.6-0.2-2.5-0.5c-0.8-1-1.1-2.3-0.7-3.5C223.4-3.7,224.1-3.9,225.1-4.7L225.1-4.7z M223.8-96.1
							c-0.9-0.5-1-1.1-1.4-2.1c0.2-2.6,1.2-2.8,3-3.7l2.3,0.7c0.7,1.1,1.4,2,0.9,3.7C228-95.9,225.5-94.5,223.8-96.1z M227.5-114.4
							c-2.6,0.6-3.6-0.1-5.3-1.4c-0.4-1.3-0.7-2.8,0-3.9c0.6-1.4,1.5-1.6,2.8-2.3c1.1-0.1,2.2,0.2,3,0.9c0.7,0.5,1.3,1.2,1.5,2.1
							c-0.2,0.9-0.3,1.9-0.5,2.8L227.5-114.4z M224-133.1c-5.1-1.9-2.6-7.2,0.7-9l3.9,0.9C231.3-137.5,229.6-131.1,224-133.1
							L224-133.1z M221.5,35.7c0.6-1.8,1.8-2.1,3.2-3l2.8,0.5c1.7,0.7,1.9,1.9,2.8,3.5c-0.1,2.9-1.4,4.1-3.5,5.1
							c-1.4,0-2.9-0.3-4.1-0.9C221.7,39.5,220.5,37.7,221.5,35.7z M211.5-149.4l2.1-2.3l4.6,0.2c2.3,1.2,3.3,3.9,2.3,6.2
							C218.5-139.1,207.7-143.3,211.5-149.4z M215.5-32.3l2.1,0.7v1.9l-1.4,0.7l-1.6-0.2c-0.2-0.5-0.3-0.9-0.5-1.4
							C214.4-31.3,214.9-31.9,215.5-32.3z M215-49.8c0.1-0.4,0.3-0.8,0.5-1.2l1.1,0.2c0.1,0.2,0.2,0.5,0.2,0.7l-0.9,0.9L215-49.8z
							 M217.3-68c-1,0.4-2.1,0.4-3-0.2v-2.1c0.4-0.8,0.7-0.7,1.4-1.2l1.9,0.7C217.8-69.9,217.7-68.9,217.3-68L217.3-68z M216.4-86.2
							c-1.2,0.2-2.4-0.3-3-1.4c-0.1-0.8-0.2-1.5-0.2-2.3l2.3-1.8c1.1,0.1,2.2,0.6,3,1.4v2.5C218.2-86.9,217.3-86.3,216.4-86.2
							L216.4-86.2z M215.3-13.8c1.1,0,2.2,0.4,3,1.1c0.3,1.1,0.4,1.6,0,2.5c-0.4,0.8-1,1.4-1.9,1.6c-2.3-0.1-3.1-1.1-3-3.7
							L215.3-13.8z M216.6-104.7l-3-0.7c-2-2.7-1.2-4.7,1.1-6.5l2.3,0.2c1.3,0.3,2.2,1.4,2.3,2.8c0.3,0.9-0.2,1.8-0.5,2.8
							L216.6-104.7z M214.1-123.6c-2.1-2.2-2.8-3.5-1.6-6.9l2-1.4c3-0.1,4.5,0.5,5.3,2.5C222-125.5,217.7-123,214.1-123.6
							L214.1-123.6z M215.1,5.4c2,0.2,3.4,2,3.1,4c-0.2,2-2,3.4-4,3.1c-2-0.2-3.4-2-3.1-4c0,0,0,0,0,0
							C211.4,6.6,213.1,5.2,215.1,5.4L215.1,5.4z M216.2,23.6c2.3,0.3,3.9,2.4,3.6,4.6s-2.4,3.9-4.6,3.6s-3.9-2.4-3.6-4.6
							c0,0,0,0,0,0C211.9,25,213.9,23.4,216.2,23.6L216.2,23.6z M205.3-58.1l-0.9-1.2c0.1-0.5,0.2-1.1,0.2-1.6l1.2-0.7l1.4,0.2
							C208.3-59.7,208-58,205.3-58.1z M207.6-40.8v1.4c-0.6,0.5-1.5,0.8-2.3,0.7c-0.9-1.5-0.8-2.2,0.5-3.2l1.4,0.2L207.6-40.8z
							 M206.2-76.6l-2.1-0.9c-0.8-2.7-0.1-3.3,2.1-4.4l1.4,0.5c0.6,0.7,1.1,1.6,1.1,2.5c-0.1,0.3-0.1,0.6-0.2,0.9L206.2-76.6z
							 M205.8-23.3h1.1l1.4,1.6c0.5,1.1,0,2.4-1.1,3h-1.6c-1.1-0.5-1.4-1.1-1.9-2.3C204.1-22,204.8-22.8,205.8-23.3L205.8-23.3z
							 M205.3-4.6h1.8c1.1,0.7,1.9,1.8,2.3,3c-0.2,1.2-0.9,2.3-1.9,3h-3C202.7-1,202.7-2.9,205.3-4.6L205.3-4.6z M209-96.6l-2.3,1.2
							c-1.5,0.5-2.8-0.6-3.5-1.6c-0.4-1.5-0.4-2.3,0.5-3.5l1.9-1.4l2.1,0.5c0.9,0.4,1.6,1.2,1.9,2.1C209.3-98.5,209.2-97.5,209-96.6
							L209-96.6z M203.7,14.7c1.7-1.4,4.2-1.1,5.6,0.7c1.4,1.7,1.1,4.2-0.7,5.6s-4.2,1.1-5.6-0.7c0,0,0,0,0-0.1
							C201.7,18.5,202,16.1,203.7,14.7L203.7,14.7z M209.9-116.7c-0.6,1.6-1.6,2.2-3.2,2.8c-1,0.1-2-0.3-2.8-0.9
							c-1.2-0.6-1.7-1.8-1.8-3.5c0.6-1.5,1.7-2.8,3-3.7C208.2-122.1,211.5-120.1,209.9-116.7L209.9-116.7z M207.1,33.1
							c2.3,0.6,3.8,2.9,3.2,5.3c-0.6,2.3-2.9,3.8-5.3,3.2s-3.8-2.9-3.2-5.3c0,0,0,0,0,0C202.4,34,204.8,32.6,207.1,33.1L207.1,33.1z
							 M205.3-142c3.7-0.1,7.2,3,5.1,6.7c-0.6,1.5-2,2.6-3.7,2.5c-2.4,0.9-4.3-1.6-5.1-3.2C201.5-140.1,202.8-140.7,205.3-142z
							 M191.7-149.4l2.1-2.3h5.5l1.8,2.5c1.7,3.7-1.3,6.3-3.4,7.1C192.6-141.9,191.5-144.2,191.7-149.4z M195.6-67.1
							c-0.9-0.6-1.5-1.6-1.6-2.8c0.1-0.3,0.1-0.6,0.2-0.9l1.6-1.2l1.4,0.2c0.5,0.5,0.9,0.9,1.4,1.4c0.1,0.6,0.1,1.2,0.2,1.8
							C197.8-67.6,197.6-67.1,195.6-67.1z M198.6-50.1c-0.6,1.3-0.9,1.8-2.5,2.1c-0.7-0.3-1.3-0.9-1.6-1.6c0.1-1.7,0.5-1.7,1.4-2.5
							l2.3,0.7L198.6-50.1z M194.5-32.1l1.6-0.9l1.1,0.2l1.4,1.1v2.1c-0.8,0.9-2,1.3-3.2,1.1l-1.4-2.1L194.5-32.1z M195.4-14.1
							l3,0.5c1.6,2.3,0.8,6.3-3,5.1l-1.6-1.4c-0.1-0.2-0.2-0.5-0.2-0.7C193.6-12.7,194.3-13.1,195.4-14.1L195.4-14.1z M199.1-86.9
							c-2.4,1.7-7.4,0.5-5.3-3.2c0.5-1.1,1.1-1.2,2.1-1.8l2.8,0.7l0.9,1.6C199.4-88.8,199.2-87.9,199.1-86.9L199.1-86.9z M197-104.4
							l-2.1-0.2c-0.9-0.9-1.6-1.9-2.3-3l0.5-2.1c0.6-1.4,1.5-1.6,2.8-2.3c2.2,0.1,2.7,0.7,3.9,1.6c0.4,1.1,0.5,2.3,0.2,3.5
							C199.4-105.4,198.5-105.2,197-104.4L197-104.4z M192.1,7.3c0.6-2.3,2.9-3.8,5.3-3.2s3.8,2.9,3.2,5.3s-2.9,3.8-5.3,3.2
							c0,0,0,0,0,0C192.9,12,191.5,9.7,192.1,7.3C192.1,7.3,192.1,7.3,192.1,7.3L192.1,7.3z M197-123.4c-1.8,0.6-3.3-1-4.4-1.8
							c-1.1-3.9,0.1-5.2,3-6.9c3.2,0,4.3,1.3,5.3,3.5C201.1-125.5,199.8-123.7,197-123.4L197-123.4z M196.5,22.9
							c2.4,0,4.3,1.9,4.3,4.3s-1.9,4.3-4.3,4.3s-4.3-1.9-4.3-4.3C192.2,24.9,194.1,22.9,196.5,22.9z M185-142.1
							c3.6-0.1,4.9,0.5,6.2,2.5c0.8,3.2-0.2,4.6-1.9,6.5c-3.8,1.1-8.9-0.6-7.1-6C182.9-140.6,183.8-141.1,185-142.1L185-142.1z
							 M187.5-57.4c-0.9,0.3-2,0.1-2.8-0.5c-0.5-1.1-0.6-2.3-0.2-3.5l2.3-1.2l1.4,0.5c0.7,0.7,1.1,1.6,1.1,2.5
							C188.9-58.4,188.7-57.9,187.5-57.4L187.5-57.4z M189.4-40.4l-0.7,1.4c-0.4,0.7-0.6,0.8-1.4,1.1l-2.5-0.7
							c-0.8-2.3-0.3-3.3,1.4-4.4h1.4C188.4-42.3,189-41.4,189.4-40.4L189.4-40.4z M185.7-23.8c3-0.1,4.1,0.9,3.9,3.9
							c-0.9,1.1-1.9,2.3-3.9,1.6c-0.9-0.4-1.5-1.2-1.9-2.1c0.1-0.5,0.2-1.1,0.2-1.6L185.7-23.8z M187.3-76.1c-1.2,0-2.4-0.5-3.2-1.4
							c-0.3-1.3-0.6-2.3,0.2-3.2c0.5-1,1.1-1.1,2.1-1.6c1.7,0.5,2.7,0.7,3.5,2.8C189.7-77.5,188.8-76.8,187.3-76.1z M185.5-95.2
							c-1.1-0.5-2-1.5-2.3-2.8c0-2.7,1.1-3,2.5-4.2c4.1-0.2,5.2,2.3,4.1,5.8C188.7-95.5,187.5-94.6,185.5-95.2z M186.4-5.1l1.8,0.5
							l1.4,1.4c1.5,1.7,0.1,3.6-0.9,4.8c-1.4,0.4-2.8,0.3-4.1-0.2C182.5-1.6,183.4-3.6,186.4-5.1L186.4-5.1z M187.3-113.7
							c-3.2-0.2-3.7-1.5-4.8-3.7c0.1-3.1,1.4-3.7,3.5-4.8c2.3,0,3.7,0.5,4.4,2.1c0.8,1,0.9,2.3,0.5,3.5
							C190.2-114.9,189.2-114.3,187.3-113.7L187.3-113.7z M186.8,12.9c2.6,0,4.7,2.1,4.7,4.7c0,2.6-2.1,4.7-4.7,4.7
							c-2.6,0-4.7-2.1-4.7-4.7c0,0,0,0,0,0C182.1,15,184.2,12.9,186.8,12.9L186.8,12.9z M174.6-32.3l1.4-1.4
							c1.2-0.1,2.4,0.2,3.5,0.9c0.5,1.2,1,2.2,0.2,3.5l-1.4,1.4c-1.6,0.8-3-0.2-3.9-0.9C174-30.1,173.8-31.3,174.6-32.3L174.6-32.3z
							 M176.5-53l2.3,0.5l1.1,1.6v2.1l-2.3,1.8l-2.5-0.7C173.5-50.2,174.4-51.8,176.5-53z M179.7-67.6l-1.8,1.2l-2.8-0.5
							c-0.7-1.1-1.4-2-0.9-3.7c0.5-1.2,1.1-1.4,2.1-2.1c2.3,0,3.2,0.7,3.9,2.3C180-69.4,179.9-68.5,179.7-67.6L179.7-67.6z
							 M176.5-14.8c3.8,0.1,4.5,2.8,3.5,5.8c-1.2,0.9-2.7,1.3-4.1,1.1c-0.8-0.7-1.4-1-1.8-2.1C172.7-12.5,174.8-13.8,176.5-14.8z
							 M177.9-85.3l-2.1-0.2l-1.8-1.4c-0.4-1.2-0.7-2.3,0-3.4s1.2-1.4,2.3-2.1c1.8,0,2.8,0.3,3.5,1.4c0.3,0.5,0.6,1.1,0.9,1.6
							C180.6-86.9,179.6-86.1,177.9-85.3L177.9-85.3z M179.5-104.7c-1,0.3-2.5,0.8-3.7,0.2c-1.3-0.5-2.3-1.5-2.8-2.8
							c0-1.3,0.2-2.5,0.7-3.7l2.1-1.4h2.8c1.5,1.3,2.6,1.9,2.8,4.6C180.7-106.7,180.1-105.7,179.5-104.7z M177.9,3.4
							c2.5,0.6,4.1,3.2,3.5,5.7c-0.6,2.5-3.2,4.1-5.7,3.5c-2.5-0.6-4.1-3.2-3.5-5.7c0,0,0,0,0,0C172.9,4.4,175.4,2.8,177.9,3.4
							C177.9,3.4,177.9,3.4,177.9,3.4L177.9,3.4z M180.6-124.3c-2.3,2.4-5.7,0.9-7.6-0.7c-1.2-4,0.1-5.8,3.2-7.4
							C180.7-132.5,183.9-127.7,180.6-124.3L180.6-124.3z M172.6-151.7h8.1l1.2,1.6c0.1,1.8,0.1,3.7,0.2,5.5c-0.9,1-1.2,1.8-2.5,2.3
							c-1.8,0.8-4.7,0-6-0.5C172-144.7,172.4-149.3,172.6-151.7L172.6-151.7z M177.3,22.3c2.7,0,5,2.2,5,4.9c0,2.7-2.2,5-4.9,5
							c-2.7,0-5-2.2-5-4.9c0,0,0,0,0,0C172.4,24.5,174.6,22.3,177.3,22.3C177.3,22.2,177.3,22.2,177.3,22.3L177.3,22.3z M164.3-142
							h5.8c3.4,2.3,2.4,6.6,0.2,9.2c-1.6,0.5-3.2,0.6-4.8,0.2c-1.1-0.4-2.1-1.2-2.5-2.3c-0.1-1.8-0.2-3.5-0.2-5.3L164.3-142z
							 M170.1-57.9c-0.6,1.1-1.5,1.5-3,1.6l-2.3-1.2c-0.6-1.4-0.7-2.9-0.2-4.4l2.1-1.4c1.4,0,2.7,0.5,3.7,1.4
							C170.7-60.4,171-58.9,170.1-57.9L170.1-57.9z M170.6-41.7v2.5c-0.3,1.1-1.3,2-2.5,2.1c-0.9,0.3-1.8-0.2-2.8-0.5l-1.1-2.1
							c0-2.1,0.6-3.1,2.1-3.7l1.4-0.5C168.7-43.5,169.8-42.7,170.6-41.7L170.6-41.7z M167.6-75.4c-2.7-0.8-3.8-1.4-3.7-5.1
							c0.7-0.9,1.6-1.7,2.5-2.3h2.3c0.9,0.8,1.6,1.1,2.1,2.3c0.4,0.8,0.4,1.7,0,2.5C170.1-76.3,169.2-75.9,167.6-75.4L167.6-75.4z
							 M164.6-23.3l1.6-1.1c3.1-0.1,3.9,0.8,4.8,2.8c-0.1,2.2-0.7,2.7-1.6,3.9c-1.7,0.5-3,0.6-4.2-0.5l-1.4-1.9L164.6-23.3z
							 M166.6-5.5c2.4,0,3.4,0.7,4.4,2.1c0.4,1.4,0.3,3-0.2,4.4L168,2.5l-3-0.7l-1.6-2.8C163.5-3.9,164.6-4.4,166.6-5.5L166.6-5.5z
							 M170.8-95.9c-1.2,0.9-2.7,1.8-4.8,1.2c-1.2-0.5-2.1-1.5-2.5-2.8c0-1.3,0.2-2.5,0.7-3.7l2.1-1.4c1.4,0,2.9,0.3,4.1,0.9
							C171.4-100,171.6-97.8,170.8-95.9L170.8-95.9z M162.9-116.7c-0.1-4.4,1.4-4.8,4.4-6c3.1,0.7,4.6,1.8,4.8,5.3
							C170.1-113.2,165.2-111.6,162.9-116.7L162.9-116.7z M164.8,13.4c2.3-1.5,5.4-0.8,6.9,1.6c1.5,2.3,0.8,5.4-1.6,6.9
							c-2.3,1.4-5.3,0.8-6.8-1.5c-1.6-2.3-1-5.4,1.3-6.9C164.7,13.4,164.7,13.4,164.8,13.4L164.8,13.4z M153-130.3l2.1-2.1h5.3
							c1.1,1.3,3.4,3.5,2.1,6.5c-1.1,3.3-7.4,4.8-9,0.9C152.7-125.9,152.9-128.6,153-130.3z M159.7-27.2c-1.2,0.3-2.3,0.6-3.5,0
							c-1.1-0.5-1.9-1.4-2.3-2.5c0.1-0.9,0.3-1.7,0.5-2.5l2.1-2.1c2.4-0.1,3.7,0.3,4.4,1.8C162.5-30.6,160.7-28.5,159.7-27.2z
							 M159.9-7.6c-1.4,0.4-3,0.4-4.4,0c-0.6-0.8-1.2-1.7-1.8-2.5c0-1.3,0.2-2.5,0.7-3.7l2.1-1.4C162.4-15.5,162.5-10.7,159.9-7.6z
							 M153.9-50.5l0.7-1.8l2.1-1.4l2.3,0.2c1,0.3,1.7,1.1,2.1,2.1c0.6,1.1,0.4,2.5-0.5,3.5c-0.5,0.8-1.2,1.3-2.1,1.6
							C155.4-46.3,154.1-47.7,153.9-50.5L153.9-50.5z M161-67.8c-1.7,4.1-7.5,2.2-7.1-3c0.8-1,1.9-1.9,3-2.5l3.2,0.7
							C161-71.5,162.2-69.7,161-67.8L161-67.8z M158.3-84.6c-2.6-0.1-4.4-1.2-4.6-3.7c-0.5-2.4,1.2-3.6,2.8-4.6
							c2.4-0.1,3.9,0.3,4.6,1.8C163.5-88.5,160.6-85.4,158.3-84.6L158.3-84.6z M153.2-107c0.2-1.1,0.3-2.2,0.5-3.2
							c0.6-1.4,1.5-1.8,2.8-2.5c4.2-0.2,5.1,1.5,6,4.6C160.9-103.4,155.5-101.9,153.2-107z M157.7,3.1c2.6,0,4.7,2.1,4.7,4.7
							c0,2.6-2.1,4.7-4.7,4.7c-2.6,0-4.7-2.1-4.7-4.7c0,0,0,0,0,0C153,5.2,155.1,3.1,157.7,3.1C157.7,3.1,157.7,3.1,157.7,3.1
							L157.7,3.1z M143.3-120.6c0.8-0.7,1.5-1.4,2.3-2.1h4.6c7.6,6.2-3.9,13.5-6.5,7.4C143-116.3,143.2-118.9,143.3-120.6z
							 M144.2-61.1c0.6-1.6,1.5-1.9,2.8-2.8c2.6,0,3.2,0.8,4.6,1.8c0.4,1.2,0.5,2.5,0.2,3.7c-0.6,1.6-1.6,2.2-3.2,2.8
							C145.8-55.6,142.7-57.8,144.2-61.1L144.2-61.1z M147-83.5c1.4,0,2.7,0.3,3.9,0.9c1.3,1.9,1.5,3.5,0.7,6
							C145.4-71.7,140.2-79.7,147-83.5z M144.2-41.7c0.6-1.8,1.7-1.9,3.2-2.8c2.8,0.1,3.7,1.2,4.6,3.2c-0.1,1.1-0.3,2.1-0.5,3.2
							c-1.2,1-1.9,1.8-4.1,1.8C145.5-36.9,142.8-38.7,144.2-41.7L144.2-41.7z M146.7-25.1c3.6-0.1,4.7,1.1,5.5,3.7
							c-0.1,3.2-1.5,3.7-3.7,4.8c-2.4-0.2-3-1-4.4-2.1C143.3-22.3,144.5-23.5,146.7-25.1L146.7-25.1z M145.8-94.3
							c-5-2.5-1.5-7.6,2.1-9l3.2,1.2C153.7-98.7,151.6-91.5,145.8-94.3L145.8-94.3z M147.9-6.2c1.5,0.4,3,1.2,4.1,2.3
							c0.4,1.3,0.7,3.1,0,4.4c-1,2.1-3.4,3.1-5.5,2.3L144,0.9C142.7-3.6,144.6-4.9,147.9-6.2L147.9-6.2z M133.6-111.1l2.1-1.8
							l5.1,0.2c7.7,3.2-2.6,14.7-6.7,7.4C133.3-106.5,133.5-109.3,133.6-111.1z M137.1-35l3.2,0.5c2.2,1,3.1,3.5,2.1,5.7
							c0,0,0,0,0,0.1c-0.5,1.5-1.9,2.5-3.5,2.5c-1.1,0.4-2.4-0.3-3.5-0.7C133-30.3,133.9-33.1,137.1-35L137.1-35z M137.1-54.4
							c4.1-0.2,6.6,2.4,5.3,6c-0.8,2.2-3.3,3.4-5.5,2.5C132.2-47.7,134-52.5,137.1-54.4L137.1-54.4z M139.6-84.1
							c-6.8,1.9-7.6-6.8-2.1-9.4C143.8-93.8,144.8-85.6,139.6-84.1z M137.8-74c5.9,0.2,5.6,5.4,3,8.5c-3.4,1-5.6,0.2-6.9-2.8
							C133.7-72.3,135.2-72.8,137.8-74z M137.1-15.9c3.9-0.2,6,1.6,6,5.3c-1,2.9-2.9,4.7-6.5,3.7C131.7-8.8,133.9-14,137.1-15.9z
							 M124.1-102.4l1.4-0.9h5.8c0.8,0.9,1.6,1.3,2.1,2.5c1,2.2-0.3,4.7-0.9,6c-1.6,1-3.4,1.3-6.2,1.2l-1.2-0.7
							C123.9-96,123.5-99.6,124.1-102.4z M127.4-25.8c5.6-0.2,8.4,6.1,4.1,9c-3.7,2.6-9.7-1.2-7.4-6
							C124.8-24.6,125.9-24.9,127.4-25.8L127.4-25.8z M123.9-39.2c-0.1-4.2,1.5-4.7,4.2-6l2.8,0.7c3.7,1.6,2.4,6,0.5,8.3
							C127.6-35.1,125.3-36,123.9-39.2z M124.1-76.8v-4.3c0.6-1.6,1.5-1.9,2.8-2.8c3.5-0.1,4.2,0.7,6,2.1
							C134.9-75.1,128.2-72,124.1-76.8z M124.1-61.3c0.7-2,1.9-2.3,3.7-3.2c9.1-0.2,4.9,13-1.4,9C124.9-56.3,122.9-58.8,124.1-61.3z
							 M114.2-72.4l1.8-1.8l5.3,0.2c3.3,1.4,3.5,7.6,0,9c-1.2,1-4.5,0.4-5.8,0C114.3-66.8,114.1-69,114.2-72.4z M114.2-47.3v-5.5
							l2.3-2.1c7.7-0.4,9.3,5.5,4.8,9.4h-4.9L114.2-47.3z M114.2-33.7l2.3-1.9c7.8-0.5,10.3,7.3,4.6,9.5l-4.8,0.2l-1.8-1.8
							C114.4-29.7,114.3-31.7,114.2-33.7z M114.9-6.7c-1.1-0.8-1.2-7.2-0.2-8.3l1.2-1.2h5.5c1,0.6,1.8,1.5,2.3,2.5
							c0.8,1.8,0,4.8-0.5,6C121.9-6.6,117.4-5.6,114.9-6.7L114.9-6.7z M131.1,3l-5.3,0.2l-0.7-0.5c-1.2-1.6-1.3-3.9-1.2-6.9l2.5-2.3
							h4.1C133-4.5,135.7,1,131.1,3L131.1,3z M140.5,11.7c-2,1.3-4.7,0.8-6-1.3c-1.3-2-0.8-4.7,1.3-6c2-1.3,4.7-0.8,6,1.3
							c0,0,0,0,0,0C143.1,7.7,142.5,10.3,140.5,11.7L140.5,11.7z M147.8,22.9c-2.8,0-5-2.2-5-5c0-2.8,2.2-5,5-5c2.7,0,5,2.2,5,4.9
							C152.9,20.6,150.7,22.8,147.8,22.9C147.9,22.9,147.9,22.9,147.8,22.9z M160.5,32.3c-2.6,1.7-6.1,0.9-7.8-1.7
							c-1.7-2.6-0.9-6.1,1.7-7.8c2.6-1.7,6.1-0.9,7.8,1.7C163.9,27.2,163.1,30.6,160.5,32.3z M167.8,43c-2.9,0-5.3-2.4-5.3-5.3
							c0-2.9,2.4-5.3,5.3-5.3c2.9,0,5.3,2.4,5.3,5.3C173.2,40.6,170.8,43,167.8,43C167.8,43,167.8,43,167.8,43z M177.4,51.6
							c-2.6,0-4.7-2.1-4.7-4.7s2.1-4.7,4.7-4.7s4.7,2.1,4.7,4.7C182.1,49.5,180,51.6,177.4,51.6C177.4,51.6,177.4,51.6,177.4,51.6
							L177.4,51.6z M189.4,41.3c-2.2,1.4-5.1,0.8-6.5-1.4c-1.4-2.2-0.8-5.1,1.4-6.5s5.1-0.8,6.5,1.4c0,0,0,0,0,0
							C192.2,37,191.5,39.9,189.4,41.3L189.4,41.3z M199.1,51.1c-2.2,1.4-5.1,0.8-6.5-1.4c-1.4-2.2-0.8-5.1,1.4-6.5s5.1-0.8,6.5,1.4
							c0,0,0,0,0,0C202,46.8,201.3,49.7,199.1,51.1L199.1,51.1z M209,60.3c-1.8,1.4-4.4,1.2-5.9-0.5l-0.1-0.1v-0.1l-0.1-0.1
							c-1.5-1.9-1.1-4.7,0.8-6.1c1.9-1.5,4.7-1.1,6.1,0.8C211.2,56.1,210.9,58.9,209,60.3L209,60.3z M215.3,51.1
							c-2.1-0.5-3.4-2.7-2.9-4.8c0.5-2.1,2.7-3.4,4.8-2.9c2.1,0.5,3.4,2.6,2.9,4.8C219.7,50.2,217.5,51.6,215.3,51.1
							C215.3,51.1,215.3,51.1,215.3,51.1L215.3,51.1z M230.5,59.5l-1.4,1.4c-1.2,0.9-4.7,0.5-6.7,0.5c-1.4-1.8-1.7-3.4-1.6-6.9
							c0.9-1,1.9-1.9,3-2.8c3.2-0.1,5.3,0.2,6.2,2.3C230.7,54.9,230.5,57.7,230.5,59.5z M239.7,49.1c-1.1,2.3-3.9,3.4-6.2,2.3
							c-1.7-0.6-2.3-1.8-3-3.5c-0.1-4.2,1.7-4.7,4.6-6C238,42.5,242.1,45.2,239.7,49.1L239.7,49.1z M249.1,60.9
							c-1.6,1-6.6,0.6-8.3,0c-0.5-1.4-1.3-4.8-0.5-6.7l2.5-2.5c2.7-0.1,4.9-0.2,6,1.4C250.1,54,250.5,59.7,249.1,60.9z M257.2,51.4
							l-4.8,0.2l-2.1-1.8c-1.2-4.4,0.4-6,3-7.8c3.5-0.1,4.4,0.8,6,2.5c0.1,1.6,0.2,3.2,0.2,4.8L257.2,51.4z M252.6-32.3l1.4-0.9h1.8
							l1.4,1.4c0.1,0.7,0.2,1.4,0.2,2.1l-1.6,1.6c-1.1,0.2-2.3,0-3.2-0.7l-0.5-2.1C252.3-31.4,252.4-31.8,252.6-32.3L252.6-32.3z
							 M252.3-51l1.9-1.6l1.4,0.2L257-51c0.1,0.6,0.2,1.2,0.2,1.8l-0.2,0.5c-0.9,0.9-2.2,1.2-3.5,0.9
							C252.6-48.6,252.2-49.8,252.3-51L252.3-51z M255.1-66.9c-0.7,0.2-1.4,0-1.8-0.5c-1.1-0.6-1.2-1.4-1.2-3.2l1.6-1.6h2.1l1.4,1.6
							c0.1,0.7,0.1,1.4,0.2,2.1C257-67.6,256.1-67,255.1-66.9L255.1-66.9z M253.5-14.3l3.2,0.5c0.9,1,1.3,2.4,1.2,3.7
							c-1.4,1.7-2.4,2.5-5.1,1.6c-1-1-1.3-2.5-0.9-3.9L253.5-14.3z M257-86.2l-2.5,0.7l-1.9-0.7c-0.7-1.1-1.4-2-0.9-3.7
							c0.6-1.4,1.3-1.6,2.5-2.3c0.9-0.1,1.9,0.3,2.5,0.9C258.8-90.1,257.9-87.8,257-86.2L257-86.2z M253.9,4.4
							c1.2,0,2.4,0.3,3.5,0.9c1.2,2,1.1,3.4,0.2,5.5c-1.8,1.1-3.1,1.2-5.3,0.5c-0.9-1.2-1.8-2.4-1.1-4.4
							C251.8,5.4,252.6,5.2,253.9,4.4L253.9,4.4z M250.7-107.7c0.1-3,1.4-3.5,3.5-4.6c1.7,0,3.2,0.9,4.2,2.3v3
							C256.8-102.5,252.2-104.7,250.7-107.7z M251.2,24.7l3.2-1.6c2.5,0.3,4.3,1.4,4.6,3.9c0.2,1.2-0.1,2.4-0.9,3.2
							C255.7,34.8,248.6,30.9,251.2,24.7L251.2,24.7z M258.6-125c-2,3.1-5.8,1.5-7.8-0.2c-1.2-4.3,0.4-5.7,3.9-7.1
							C257.5-131.4,261.1-128.9,258.6-125L258.6-125z M259.3-144.6c-1.8,4.1-7.1,2.4-9.2,0c-0.7-2.5-0.1-5.2,1.6-7.2h6.2l1.2,1.4
							C259.7-149.5,259.8-145.8,259.3-144.6L259.3-144.6z M268,40.8c-1.1,0.7-3.3,1.8-5.3,0.9c-4.4-1.5-3.2-6.2-0.9-8.8l2.3-0.7
							C268.9,33.1,270.1,36.5,268,40.8L268,40.8z M327.3-43.1v5.3c-1.4,2.2-4.2,3.1-6.7,2.1c-1.7-0.6-2.3-1.9-3-3.5
							c-0.1-3.7,1.1-4.6,3.2-6C324.6-45.3,325.5-44.7,327.3-43.1z M295.9-7.4c-3.6,1.1-8.9-1.4-6.2-5.8c0.8-1.6,1.8-1.8,3.5-2.5
							c3.2,0.4,3.6,1.6,4.8,3.9C297.8-9.4,297-8.8,295.9-7.4L295.9-7.4z M291.8,12.7c-5.1-1.8-2.5-7.4,0.7-9.2
							c1.4,0,2.9,0.3,4.1,0.9C299.1,7.7,297.9,14.9,291.8,12.7L291.8,12.7z M289.7-32.1c0.7-1.7,1.6-1.9,3.2-2.8
							c2.6,0.1,4.4,1.2,4.6,3.7c0.2,1,0,2-0.7,2.8c-0.5,0.9-1.5,1.6-2.5,1.9c-2.5,0-3-0.8-4.4-1.9C289.5-29.6,289.4-30.8,289.7-32.1
							L289.7-32.1z M290.2-52.6c0.9-0.5,1.8-1.1,2.8-1.6c2.2,0.2,2.9,0.9,4.1,1.8c0.3,1,0.7,2.5,0.2,3.7c-0.4,1.5-1.7,2.5-3.2,2.5
							c-1,0.3-2,0-2.8-0.7C289.1-47.9,289.5-50.4,290.2-52.6L290.2-52.6z M296.8-67.1c-0.7,1.3-2,1.8-3.9,1.8
							c-1.9-0.7-4.7-2.5-3.2-5.5c0.6-1.6,1.5-1.9,2.8-2.8c1.3,0,2.5,0.2,3.7,0.7C297.3-71.4,298.6-69,296.8-67.1z M297.3-86.3
							c-1.5,2.2-6.2,2.5-7.4-0.2c-2.9-3.1,0.9-5.9,3.2-6.9C296.5-93.1,299.6-89.8,297.3-86.3L297.3-86.3z M297.5-105.4
							c-2.5,3.7-7.4,1.6-8.8-1.6c-0.1-3.9,1.2-4.4,3.2-6C296.5-113.3,300.4-109.6,297.5-105.4L297.5-105.4z M305.6-55.8
							c-4.2,1.2-8-1.2-6.5-5.5c0.6-1.5,1.5-1.9,2.8-2.8c1.9-0.1,3,0.1,3.9,0.9C309.1-61.5,307.1-57.6,305.6-55.8L305.6-55.8z
							 M305.6-36.5c-2.5,0.7-5.1,0.5-6-1.6c-1.3-1.5-0.6-3.4,0-5.1l2.5-1.6C308.5-45,308.2-39.6,305.6-36.5L305.6-36.5z M302.8-25.6
							c3.3,0.3,6.4,3.4,4.4,6.7c-1.4,3.4-7,3.1-8.3-0.2C297.5-23,300.5-24.6,302.8-25.6L302.8-25.6z M302.8-6.5
							c2.7,0.4,3.5,1.2,4.8,2.8c0.3,1.3,0.4,3.4-0.2,4.4c-1.2,2.8-6.1,3.5-8.1,0.9C296.4-2.2,300-5.3,302.8-6.5L302.8-6.5z
							 M307.2-77c-2,4.5-10.2,2.2-8.3-3.7c0.7-1.7,1.8-2.1,3.2-3C306.2-83.9,309.5-80.5,307.2-77L307.2-77z M308.6-71.5
							c0.7-1.6,1.8-1.9,3.2-2.8c3.6-0.2,7.4,2.4,5.5,6.4C315.4-61.9,305.2-65.6,308.6-71.5L308.6-71.5z M309.1-53.1
							c1.1-0.7,2.3-1.3,3.5-1.8c2.9,0.5,4,1.4,5.1,3.7c0.3,5.4-6.6,8.3-8.5,3.7C307.6-49.1,308.4-51.3,309.1-53.1L309.1-53.1z
							 M310.2-34.8l2.3-0.7c3,0.2,6.6,2.7,4.8,6.5C315.3-22.5,304.4-27.8,310.2-34.8L310.2-34.8z M327.3-57.2l-2.1,2.1
							c-1.4,0.3-4,0.4-5.1-0.2c-4.4-1.9-2.1-7.3,0.5-9.2h4.4l1.1,0.7C327.3-62.3,327.4-60.2,327.3-57.2L327.3-57.2z M319.9-84
							c2.2-0.1,4.5,0,6.7,0.5c1,1.6,0.8,5,0.7,7.6c-1.8,1.4-3.5,1.7-7.2,1.6C317.3-77.2,316.8-80.8,319.9-84L319.9-84z M310.9-93.6
							c2.6-0.1,4.8-0.2,5.8,1.4c1.2,1,1,3.7,0.9,6C310.4-80.4,304-88.4,310.9-93.6L310.9-93.6z M307.9-96.9c-1.3,4.5-6.5,3.1-9,0.9
							c-1.1-3.8,0-5.6,2.8-7.4C305.8-103.6,309.4-101.7,307.9-96.9L307.9-96.9z M307.5-122.7l0.5,0.2v7.8c-1.8,1.4-3.5,1.8-7.1,1.6
							c-2.5-2.6-3.7-6.5-0.7-9.7H307.5z M288.6-130.3c0.6-0.7,1.2-1.4,1.8-2.1h7.2l0.5,0.7c2.5,5.2-0.8,10.8-6.7,9
							C288.7-123.5,288.3-126.6,288.6-130.3L288.6-130.3z M282.4-122.7c3.8-0.2,7.9,2.1,6,6.2c-0.6,1.9-3.1,4.3-6,3
							c-1.5-0.5-2.7-1.7-3.2-3.2C279-120.5,280.2-121.1,282.4-122.7L282.4-122.7z M282.6-36.9c-1-0.3-1.7-1.1-2.1-2.1
							c-0.4-0.9-0.4-1.9,0-2.8c0.6-1.2,1.3-1.5,2.3-2.3c3.3-0.1,4.7,1.2,4.8,4.1C286.8-37.8,285.6-36,282.6-36.9L282.6-36.9z
							 M284.9-17.1c-1.6,0.1-3.2-0.5-4.4-1.6c-0.3-1-0.7-2.4-0.2-3.5c0.6-1.7,1.5-2,3-2.8c2.6,0.1,4.2,1.2,4.4,3.7
							C288.2-19.3,286.3-17.7,284.9-17.1L284.9-17.1z M280.3-61.1c0.7-0.9,1.6-1.6,2.5-2.3c2.6,0,3,0.6,4.4,1.6
							c0.4,1.4,0.3,3-0.2,4.4l-2.3,1.4c-2.3,0.1-3.5-0.7-4.2-2.3C280-59.3,280.2-59.9,280.3-61.1L280.3-61.1z M286-75.6
							c-2.6,0.8-4.9,0.3-5.8-2.1c-0.4-1-0.4-2,0-3c0.8-1.7,1.8-1.8,3.5-2.5C288.3-82.3,288.5-78.6,286-75.6L286-75.6z M282.8-5.7
							c1.2,0,2.5,0.2,3.7,0.6c2.1,2.8,1.7,4.9-0.5,7.4c-3,0.8-4.2-0.1-6-1.6C279.1-2.9,280.4-4.3,282.8-5.7L282.8-5.7z M282.4-94.5
							c-4.6-1.6-2.4-6.5,0.2-8.3l2.8,0.2c1.7,0.6,3.8,2.9,2.5,5.5C287.3-95.4,284.9-93.3,282.4-94.5L282.4-94.5z M282.8,13.2
							c6.8-0.3,7.4,8.2,1.8,9.4C277.9,24,278.2,15.7,282.8,13.2L282.8,13.2z M272.4-132.4c1.6-0.1,3.3,0.2,4.8,0.7
							c4.6,6.7-1.8,11.4-7.4,6.7C268.8-128.8,269.9-130.4,272.4-132.4z M271.5-32.5c0.6-1,1.3-1.1,2.3-1.6c1.4,0,2.7,0.7,3.5,1.8
							c0.4,1,0.4,2,0,3c-0.4,0.5-0.8,1.1-1.2,1.6c-1.2,0.4-2.3,0.7-3.5,0c-0.9-0.4-1.6-1.2-1.8-2.1
							C270.8-31.1,270.9-31.8,271.5-32.5z M271.3-51.4l1.8-1.8h2.3l1.6,1.4c0.3,1.2,0.6,2.2,0,3.2l-1.6,1.6h-2.5
							c-1.6-0.6-2.4-2.5-1.8-4.1C271.2-51.2,271.2-51.3,271.3-51.4L271.3-51.4z M277.3-68c-0.5,1-1.4,1.8-2.5,2.1l-2.1-0.2
							c-1-0.9-1.7-2-2.1-3.2c0.4-1.4,1.3-2.7,2.5-3.5h2.3c1.1,0.9,1.8,1.2,2.1,3C277.4-69.3,277.3-68.6,277.3-68L277.3-68z
							 M270.8-12.7c0.6-1.3,1.4-1.6,2.5-2.3c1.1,0,2.2,0.2,3.2,0.7c0.9,1.2,1.9,2.9,0.9,4.6c-0.7,1.5-1.8,2.2-3.9,2.3
							c-1-0.6-1.7-0.6-2.3-1.6C270.3-10,270.1-11.5,270.8-12.7L270.8-12.7z M277.5-87.1c-0.5,0.9-1.3,1.7-2.3,2
							c-1.6,0.1-3.2-0.5-4.4-1.6c-0.4-1.1-0.5-2.3-0.2-3.4c0.6-1.4,1.4-1.7,2.5-2.5c1.6-0.1,3.2,0.5,4.4,1.6
							C277.8-89.8,278.2-88.3,277.5-87.1z M273.3,3.9c1.5,0,3,0.5,4.1,1.4c1.2,3.1,0.6,4.5-1.2,6.7c-3.1,0.8-4.9-0.1-6.2-2.3
							C269.5,6.2,271,5.2,273.3,3.9z M272.6-104.3c-2.2-0.8-3.4-3.2-2.6-5.4c0,0,0-0.1,0.1-0.1c0.6-1.5,1.5-1.9,2.8-2.8l2.8,0.2
							c2.2,0.8,3.4,3.3,2.5,5.5C277.3-104.6,274.9-103.4,272.6-104.3L272.6-104.3z M271.7,31.7c-1.4-1.4-3.7-4.5-1.4-6.9
							c0.6-1.2,1.6-1.4,2.8-2.1l3,0.5C281.5,25.4,278.9,33.6,271.7,31.7L271.7,31.7z M280.7,41.9l-1.6-2.3c-1.7-3.7,1.1-6.1,2.8-7.4
							c3.3-0.1,5.4,0,6.5,2.1l0.2,6.5C286.8,42.1,284,42.1,280.7,41.9L280.7,41.9z M297.8,31c-1,1.6-4.5,1.3-7.2,1.1
							c-1.5-1.9-2.2-2.8-2.1-6.7c0.9-1.2,2-2.2,3.2-3c1.7-0.1,3.4,0.1,5.1,0.7C297.8,24.4,299.5,29,297.8,31L297.8,31z M307.5,21.4
							c-1,1.6-4.5,1.3-7.1,1.1c-1.1-1.4-3.2-3.7-1.9-6.7c0.6-1.6,1.6-2.1,2.8-3h4.4l2.1,2.1C308.3,16.2,308.2,20.5,307.5,21.4
							L307.5,21.4z M309.8,12.8l-1.6-2.3c-1.6-3.5,0.9-6,2.3-7.4c2.8-0.1,5,0.1,6.7,0.9c0.8,2.1,0.2,6.5,0.5,8.5L309.8,12.8z
							 M317.6-9.1c-0.8,1-1.2,1.8-2.5,2.3h-3.9c-5.3-1.8-2.7-7.3,0.2-9.5c3.8-0.1,4.4,0.9,6.2,2.5V-9.1z M320.1-16.2l-2.1-1.8
							c-1.1-4,0-6.2,2.5-7.8c3.6-0.1,4.8,0.4,6.7,1.6v6.7l-1.6,1.1L320.1-16.2z"/>
					</g>
				</g>
			</g>
		</g>
	</g>
</g>
</svg>
