<svg xmlns="http://www.w3.org/2000/svg" viewBox="0 0 165 105" shape-rendering="geometricPrecision">
  <defs>
    <style>
      .cls-4{fill:#120f0e}.cls-7{fill-rule:evenodd}
    </style>
    <clipPath id="clip-path">
      <path d="M86.28 51.12H48.82c-8.76 0-6.08.12-11.66.12-6.67 0-8.68 3.23-6.09 5.81s12.35 2.45 12.35 5.84-19.68 3.35-22.7 10.66C17.44 81.53 25.6 92 33.31 92s21.29-2.23 26.5 3 6.26 7.53 12.71 7.53c12.15-.03 13.76-51.41 13.76-51.41z" fill="none"/>
    </clipPath>
  </defs>
  <g style="isolation:isolate">
    <g id="Layer_1" data-name="Layer 1">
      <path d="M86.43 52.07s-35.82-.52-52.43.13c-3.43.14-10.3-1.9-12.75-.7a.85.85 0 0 0-.33 1.5c1.36 1.36 5.14 4.5 1.21 6.05-5.24 2.07-16.63.3-19.17 7C2 68.62 1.81 72.7 9.5 80.38s12.15 11.76 21.86 11.76 32.72-15.43 35.49-12.66-2.9 3.08 5.26 8.88C85.76 98 86.43 52.07 86.43 52.07z" fill="#c0dbde"/>
      <path class="cls-4" d="M34.57 18.72l-2.07-.29c-5-.7-5.64-2.3-5.64-3.78 0-2.33 1.76-3.72 4.7-3.72a15.72 15.72 0 0 1 8.82 2.91 1.14 1.14 0 0 0 1.53-.34l3.5-5.22a1.24 1.24 0 0 0 .27-.91 1.1 1.1 0 0 0-.5-.69A22.68 22.68 0 0 0 31.56 2.5C22.8 2.5 17.14 7.41 17.14 15c0 7 4.32 11.09 12.85 12.27l2.08.29c4.63.63 5.58 2 5.58 3.84 0 2.54-2.24 4.12-5.85 4.12a15.89 15.89 0 0 1-9.92-3.91 1.11 1.11 0 0 0-1.61.12l-4.39 5a1.24 1.24 0 0 0 .09 1.7C19.4 41.74 25.62 44 31.44 44c9.82 0 15.92-5 15.92-12.89 0-7.17-4.18-11.22-12.79-12.39zM84.66 3.13h-7.31a1.08 1.08 0 0 0-1.12 1.11v14.48H61.67V4.25a1.08 1.08 0 0 0-1.12-1.11h-7.31a1.08 1.08 0 0 0-1.12 1.11v38a1.08 1.08 0 0 0 1.12 1.11h7.31a1.08 1.08 0 0 0 1.12-1.11V27.33h14.56v14.88a1.08 1.08 0 0 0 1.12 1.11h7.32a1.08 1.08 0 0 0 1.12-1.11v-38a1.08 1.08 0 0 0-1.13-1.08zM101.31 42.37l2.07-6.47h12.92l2.12 6.45a1.22 1.22 0 0 0 1.27 1h7.49A1 1 0 0 0 128 43a1 1 0 0 0 .09-.92l-13.25-38a1.28 1.28 0 0 0-1.26-.94h-7.26a1.28 1.28 0 0 0-1.26.94L91.58 42a1 1 0 0 0 .09.92 1 1 0 0 0 .83.37h7.5a1.22 1.22 0 0 0 1.31-.92zm4.78-14.74L109.86 16l3.78 11.66zM116.35 51.66h-21.7a1.08 1.08 0 0 0-1.12 1.11v38a1.08 1.08 0 0 0 1.12 1.11H102a1.08 1.08 0 0 0 1.12-1.11V77.88h13.26c8.49 0 14.19-5.25 14.19-13.08-.03-7.98-5.57-13.14-14.22-13.14zM121 64.8c0 2.94-1.93 4.7-5.16 4.7h-12.76V60h12.74c3.18 0 5.18 1.87 5.18 4.8zM161.38 60a1.08 1.08 0 0 0 1.12-1.11v-6.11a1.08 1.08 0 0 0-1.12-1.11h-25.11a1.08 1.08 0 0 0-1.12 1.11v38a1.08 1.08 0 0 0 1.12 1.11h25.11a1.08 1.08 0 0 0 1.12-1.11v-6.2a1.08 1.08 0 0 0-1.12-1.11H144.7v-7.72h13.86a1.08 1.08 0 0 0 1.12-1.11v-6.1a1.08 1.08 0 0 0-1.12-1.11H144.7V60z"/>
      <g clip-path="url(#clip-path)">
        <path class="cls-7" d="M48.55-3.62a3.93 3.93 0 0 1 2.87.62l-.1 3.25c-1.22-.08-2.76.07-3.6-.55a5.82 5.82 0 0 1-.09-2.4zM126.42-3.62c1.43-.06 2.12.32 2.49 1.29a2.24 2.24 0 0 1-1 2.58l-1.86-.09-.92-.74a4.39 4.39 0 0 1 .18-2.12c.25-.53.69-.63 1.11-.92zM41.26-3.53c1.86-.12 3.23 1.6 2 3.14s-3.53.32-3.42-1.66a2.83 2.83 0 0 1 1.42-1.48zM134.27-3.44c1.27-.05 1.88.34 2.22 1.2.47 1.47-.62 2.43-2 2.4A1.92 1.92 0 0 1 133-2a2.64 2.64 0 0 1 1.27-1.44zM33.68-3.35a1.61 1.61 0 0 1 1.66.74 1.4 1.4 0 0 1 .09 1.75 1.53 1.53 0 0 1-2 .74 1.51 1.51 0 0 1-1-1.75c.08-.95.57-1.08 1.25-1.48zM44.77.25a3.36 3.36 0 0 1 2.77.75 7.2 7.2 0 0 1-.28 3l-2.77.09a2.9 2.9 0 0 1-.74-2.86zM130.39.25c2.59-.12 2.89 2.08 1.76 3.6a2.53 2.53 0 0 1-3.15-.74l.09-1.84a4.15 4.15 0 0 1 1.3-1.02zM37.56.34c3.44-.13 2.19 4.5.09 3.66-.91 0-1.93-1-1.57-2C36.2.91 36.77.75 37.56.34zM138.34.43a2.71 2.71 0 0 1 1.76.65c.42 1.17.39 2.29-.83 2.77a2.91 2.91 0 0 1-1.57-.09c-.49-.59-1.26-1.63-.46-2.49.24-.53.62-.55 1.1-.84zM30.08.53l1.29.55a2.74 2.74 0 0 1 .18 2l-.92.65c-1.62.51-2.36-1-1.94-2.4a7.69 7.69 0 0 1 1.39-.8zM146 .71a2.32 2.32 0 0 1 1.66.55l.28 1.2c-.3.48-.38.85-.92 1.11a1.45 1.45 0 0 1-1.94-.74 1.66 1.66 0 0 1 .37-1.83zM22.32.8c.67.2 1 .32 1.29.92l.09.83a1.4 1.4 0 0 1-.74.83 1.11 1.11 0 0 1-1.29-.09c-.52-.24-.66-.62-.65-1.38.35-.7.61-.75 1.3-1.11zM153.85 1l.83.09a1.49 1.49 0 0 1 .74 1.38l-.74.92h-.92a2.33 2.33 0 0 1-.83-1 1.24 1.24 0 0 1 .37-.92zM14.28 1.17a1.76 1.76 0 0 1 1.29.46l.09.83a3 3 0 0 1-.92.83L14 3c-.88-.53-.26-1.42.28-1.83zM161.89 1.26c.44.08.55.13.74.46l.28.37-.37.83-.46.18-.92-.37-.1-.73.46-.65zM6.71 1.45c.69.15.9.46.74 1.2-.3.14-.45.26-.74.18l-.46-.18v-.93zM41.07 4.12c1.31-.07 2.11.07 2.49.92l.09 2.31-.73.65a4.68 4.68 0 0 1-2.22-.18c-1.84-.82-.59-3.01.37-3.7zM134.55 4.12a2 2 0 0 1 2 1.29c.58 1.8-1 2.93-2.77 2.4a1.92 1.92 0 0 1-.83-1V5.23a4.42 4.42 0 0 1 1.6-1.11zM33.5 4.31c1.65-.08 2.38.58 2.31 2.21-.49 1.17-2.39 2.06-3.33.65s.19-2.37 1.02-2.86zM142.12 4.4c.91 0 1.47.16 1.76.74 1.38 1.41-.67 2.88-2.12 2.49a3.22 3.22 0 0 1-.92-1.29 2.42 2.42 0 0 1 .65-1.66zM26 4.49l1 .18.74.83c.11 1.26-.32 2.15-1.76 2.12-1.82-.62-1.36-2.36.02-3.13zM149.79 4.68c.81 0 1.29.06 1.57.55a1.17 1.17 0 0 1 .37 1l-.55 1a2 2 0 0 1-1.11.18l-.93-.41-.28-1.2a3.41 3.41 0 0 1 .93-1.12zM18.44 4.77a2.06 2.06 0 0 1 1.29.83l-.09.92a.79.79 0 0 1-.46.55 1.1 1.1 0 0 1-1.66-.28 1.37 1.37 0 0 1-.18-1.29L18 5zM157.73 5l.83.09c.35.24.75.7.55 1.2s-.3.61-.65.92l-.83-.09-.55-.55-.08-.69c.13-.59.35-.62.73-.88zM10.4 5.14l.65.09c.4.19.46.34.65.74a1.54 1.54 0 0 1-.55 1l-.46.09c-.5-.21-1-.58-.83-1.2.14-.43.27-.46.54-.72zM2.74 5.51l.65.09.09.18v.55l-.28.18c-.29.09-.33.08-.55-.09h-.19c0-.42-.11-.38.09-.65zM37.38 8a2.46 2.46 0 0 1 2.4 1.11l-.09 1.75c-.37.91-1.41 1.22-2.68.92-1.5-1.28-1.23-2.78.37-3.78zM129.75 8l2.12.09 1 .92-.09 1.94-.74.92a9.7 9.7 0 0 1-3-.18L129 8.55zM138.24 8.09c1.08 0 1.71.3 2 1a2 2 0 0 1-.37 2.31c-2.92 1.33-4.31-1.92-1.63-3.31zM30 8.18c2 .3 2.26 1.89 1.2 3.23-2.92 1.02-3.84-2.11-1.2-3.23zM145.91 8.37c1.09 0 1.63.21 1.94.92a1.8 1.8 0 0 1-.46 2l-1.2.28c-.62-.33-1-.43-1.29-1.11a2.45 2.45 0 0 1 .1-1.36zM22.23 8.46a2.22 2.22 0 0 1 1.48.74 1.72 1.72 0 0 1 0 1.29c-.25.68-.7.95-1.66.92a1.84 1.84 0 0 1-1-.92 1.43 1.43 0 0 1 .74-1.84zM153.76 8.64l1 .09.55.65c.45.75-.09 1.3-.46 1.75h-.18a1.1 1.1 0 0 1-1.29-.18c-.4-.25-.54-.55-.55-1.2l.17-.55zM14.19 8.83a2 2 0 0 1 1.39.37 1.73 1.73 0 0 1-.18 1.66l-1 .28-.74-.46a2.36 2.36 0 0 1-.09-1.2zM161.7 8.92l.65.09c.89.62.6 1.36-.09 1.94l-1-.18a1.23 1.23 0 0 1 .44-1.85zM6.71 9.1c.65.11.71.31 1 .74l-.28.55c-.27.42-.54.38-1.11.28l-.28-.46c.04-.79.22-.79.67-1.11zM34 11.87c3.16.81 2.24 4.6-1 3.6a2.28 2.28 0 0 1-.18-3.14zM133.9 11.87c3.16-.18 3.51 2.4 1.76 3.87l-2-.09-.74-.65.09-2.21zM142 12.05a2.18 2.18 0 0 1 2.22 1.11c.12 1.18-.14 2-1.11 2.31a2 2 0 0 1-2-.46 2.06 2.06 0 0 1 .89-2.96zM26 12.15a1.66 1.66 0 0 1 1.76 1.11 1.85 1.85 0 0 1-.37 1.84 3.31 3.31 0 0 1-1.48.37 1.88 1.88 0 0 1-1.11-.92 1.85 1.85 0 0 1 .37-2zM149.88 12.33c1.33-.09 2.61 1.14 1.66 2.21l-.65.65a1.72 1.72 0 0 1-1.94-.55A3 3 0 0 1 149 13zM18.35 12.42a3 3 0 0 1 1.29.55l.18 1.2a1.51 1.51 0 0 1-1.48 1c-1.66-.57-1.34-2.08.01-2.75zM157.73 12.61l.83.09a1.54 1.54 0 0 1 .74 1.3c-1.09 2-3.33.24-2.12-.92zM10.4 12.79c1 0 1.33.32 1.39 1.2a1.19 1.19 0 0 1-1.94.46 2 2 0 0 1 0-1.29zM165.49 13c.44 0 .62 0 .83.18l.37.28v.65a1.62 1.62 0 0 1-.83.65l-.83-.46-.09-.65zM2.74 13.16c.67 0 .71.17.92.65l-.28.55a1.09 1.09 0 0 1-1-.18l-.09-.28.09-.28zM37.1 15.74a3.3 3.3 0 0 1 2.68.74 10 10 0 0 1-.18 2.77l-.55.37a4.68 4.68 0 0 1-2.22-.18c-1.73-.76-.74-3.02.27-3.7zM138.24 15.74c3.07-.12 3.11 4.06-.09 3.87a2 2 0 0 1-1.29-1.2c-.69-1.52.61-2.21 1.38-2.67zM30 15.84a3.14 3.14 0 0 1 1.66.74c.56 1.58.06 2.46-1.29 3-2.83-.11-2.37-2.89-.37-3.74zM145.91 16a1.88 1.88 0 0 1 2.22 1.48 1.67 1.67 0 0 1-1.2 1.75c-2.19 1.05-2.74-2.02-1.02-3.23zM22.23 16.11a1.59 1.59 0 0 1 1.57 1.11 2.1 2.1 0 0 1-.09 1.38 2.51 2.51 0 0 1-1.57.65 1.73 1.73 0 0 1-1.14-2.4zM153.76 16.3l1.2.18c.89 1.07.66 3-1.39 2.49a1.59 1.59 0 0 1-.65-2zM14.19 16.48c1.13-.05 1.65.32 1.66 1.38a3 3 0 0 1-.74 1L14 18.79a2.14 2.14 0 0 1-.65-1l.37-1zM161.8 16.57c.54.07.8.16 1 .55.17.22.19.39.18.83s-.17.39-.46.55c-.45.41-.88.2-1.39 0a1.32 1.32 0 0 1-.18-1.2c.22-.46.44-.47.85-.73zM6.71 16.76l.74.18a1.58 1.58 0 0 1 .18 1.2L7 18.6l-.92-.37v-1zM33.59 19.62a2.42 2.42 0 0 1 2.31 1.11v1.75c-2.7 2.52-5.51-1.04-2.31-2.86zM133.53 19.62c1.09-.05 2.21-.13 2.68.46l.55.55-.09 1.84c-.31.88-3 1.79-3.69.55a5.27 5.27 0 0 1 .09-3zM142.21 19.71c3.1-.11 2.56 4.46-.65 3.5a2.39 2.39 0 0 1-.74-2.49 5 5 0 0 1 1.39-1.01zM25.74 19.89c1.11-.05 1.71.2 2 .92a2.19 2.19 0 0 1 0 1.66c-.55.45-1.22 1.07-2.12.65s-1.21-1.23-.92-2.31zM150 20a2.25 2.25 0 0 1 1.57.55l.28.46c.11 1.78-.89 2.39-2.4 1.94-1.02-1.24-.8-2.19.55-2.95zM18.07 20.17c1.25-.06 1.84.41 1.85 1.57a2.57 2.57 0 0 1-.92 1.2 3.37 3.37 0 0 1-1.48-.28c-.36-.61-.72-1.31-.09-1.94zM157.92 20.26l.83.18a1.9 1.9 0 0 1 .55 1.48 1.7 1.7 0 0 1-1.11.92 2.2 2.2 0 0 1-1.2-.46 1.85 1.85 0 0 1-.09-1.29c.24-.52.53-.56 1.02-.83zM10.5 20.45l.55.09.65.37V22a1 1 0 0 1-1.85.09 1.29 1.29 0 0 1-.18-.92 2.61 2.61 0 0 1 .83-.72zM165.58 20.63l.55.09.55.37v.65c-.13.45-.28.47-.55.74a1.51 1.51 0 0 1-1.2-.46l.09-.83zM2.83 20.82c.63.13.63.3.92.74l-.09.28-.37.28c-.18.15-.13.12-.46.18l-.65-.65a1.38 1.38 0 0 1 .65-.83zM36.91 23.49a4.79 4.79 0 0 1 2.86.46l-.09 3.14a4.66 4.66 0 0 1-2.86.18l-.92-.92.1-1.84a2.47 2.47 0 0 1 .91-1.02zM138 23.49c2.79-.17 3.59 3 1.39 3.78a3.66 3.66 0 0 1-1.85-.09l-.74-.83c-.1-1.85.2-2.12 1.2-2.86zM29.71 23.58c.94 0 1.54.15 1.85.74 1.93 1.76-2 4.42-3 1.94-.86-1.33.44-2.26 1.15-2.68zM146.28 23.68a1.8 1.8 0 0 1 1.85 2.12c-.41 1-2.06 2.07-3 .83s.08-2.51 1.15-2.95zM22 23.86l1.2.18a2 2 0 0 1 .55 2.12l-.74.65a1.75 1.75 0 0 1-1.94-.37l-.14-.44a1.89 1.89 0 0 1 .46-1.84zM154.13 24a3.59 3.59 0 0 1 1.2.55l.28 1.2-.55.92a2.13 2.13 0 0 1-1.11.18 1.2 1.2 0 0 1-1.11-.92l-.09-.83c.35-.76.65-.8 1.38-1.1zM14.38 24.14a1.9 1.9 0 0 1 1.39.65l.18.65c-.16.48-.23.79-.65 1a1.19 1.19 0 0 1-1.85-.55v-1zM161.52 24.32l.92.09a1.41 1.41 0 0 1 .65 1.2l-.74.92-.83-.09c-.71-.3-.76-.91-.55-1.66zM6.62 24.51l.55.09.55.37a1.48 1.48 0 0 1-.37 1.29l-.18.09c-.92 0-1-.28-1.29-.92a1.7 1.7 0 0 1 .74-.92zM33.4 27.37c1.29-.06 2 .18 2.4 1v1.84c-.58 1.4-3 1.25-3.6 0s.4-2.34 1.2-2.84zM133.26 27.37c1 0 2.48-.17 3 .37 1.24.76.4 3-.37 3.5a8.88 8.88 0 0 1-3-.28c0-.84-.25-2.85.18-3.32zM142 27.46c1.92-.13 3.3 2 1.85 3.23-1.66 1.42-3.6-.28-3-2.21a3.54 3.54 0 0 1 1.15-1.02zM26 27.55c1.36 0 2 .72 1.94 2.21-.38.78-.73.89-1.48 1.29a1.8 1.8 0 0 1-1.94-2c.37-.92.69-1.05 1.48-1.5zM149.79 27.73l1.39.18c.31.39.86.94.65 1.57a1.29 1.29 0 0 1-.83 1.2l-1.11.18a1.74 1.74 0 0 1-1-.92 1.71 1.71 0 0 1 0-1.38zM18.35 27.83c1.05.26 1.61.48 1.57 1.84-.35.71-.66.85-1.48 1.11l-1.11-.55-.27-1.23a2.3 2.3 0 0 1 1.29-1.17zM157.73 28a2 2 0 0 1 1.39.46 1.83 1.83 0 0 1-.18 1.84l-1.11.28-.55-.18-.55-1.11.55-1.11zM10.4 28.2l.83.09a1.41 1.41 0 0 1 .65 1.2c-.25.39-.29.62-.74.83A1.4 1.4 0 0 1 9.85 30a2.4 2.4 0 0 1-.18-1.11zM165.4 28.38l1.11.18.28.92c-.15.3-.17.39-.46.55a1 1 0 0 1-.83.18l-.55-.65v-.65zM2.74 28.56c.51 0 .62.06.83.37s.13.5 0 .92c-.75.28-1.1.15-1.39-.55l.18-.55zM36.82 31.24a11.41 11.41 0 0 1 2.86.18l.09.18v3.14l-.28.09a3.47 3.47 0 0 1-2.77.09l-.83-.83c-.05-1.62.11-2.09.93-2.85zM138 31.24l1.76.18c.93 1.09 1.38 2.93-.37 3.6-1.36.42-2-.32-2.59-.92l.09-1.84c.22-.57.59-.7 1.11-1.02zM29.71 31.33c1.48-.09 2.79 1 2.22 2.49-.51 1.34-2.8 1.67-3.42.18-.81-1.33.49-2.23 1.2-2.67zM146.09 31.42a1.8 1.8 0 0 1 1.85 1l.18 1.11c-.41 1-2.06 2.07-3 .83s-.01-2.46.97-2.94zM22 31.61l1.29.18a2.33 2.33 0 0 1 .71 1.57 1.78 1.78 0 0 1-.92 1.2 1.75 1.75 0 0 1-1.94-.37l-.28-.46A1.86 1.86 0 0 1 22 31.61zM153.95 31.7a1.47 1.47 0 0 1 1.48.83 1.83 1.83 0 0 1 0 1.48c-1 .84-2.78.83-2.68-1.2.31-.64.62-.74 1.2-1.11zM14.38 31.88l1.11.28c.4.66.68 1.58-.18 2a1.32 1.32 0 0 1-.92.28c-.43-.27-.7-.33-.92-.83-.33-1.01.27-1.35.91-1.73zM161.52 32.07l.83.09a1.19 1.19 0 0 1 .74 1.2l-.46.74a1.5 1.5 0 0 1-1.11.09c-1.12-.46-.65-1.57 0-2.12zM6.62 32.25c.72 0 .9.16 1.11.65v.65l-.55.55c-.92 0-1-.28-1.29-.92a1.7 1.7 0 0 1 .73-.93zM33.4 35.11a2.62 2.62 0 0 1 2.49 1l-.09 1.75a2.08 2.08 0 0 1-3.33.46c-1.02-1.32-.02-2.52.93-3.21zM133.35 35.11l2.49.09c.49.22.61.55.92.92l-.09 1.88a3.07 3.07 0 0 1-.83 1 5.08 5.08 0 0 1-3-.46c0-1.11-.13-2.64.28-3.32zM142 35.21c1.24 0 1.89.35 2.22 1.2.56 1.58-.65 2.54-2.12 2.49-1.89-.83-1.66-2.74-.1-3.69zM26.11 35.3a1.8 1.8 0 0 1 1.66 1 2.19 2.19 0 0 1 0 1.66c-2.43 2.04-4.56-1.42-1.66-2.66zM149.88 35.48a2.2 2.2 0 0 1 1.76.65c.55 1.62-.38 2.85-2.22 2.31-.94-1.17-.82-2.17.46-2.96zM18 35.67a2.21 2.21 0 0 1 1.66.46 1.71 1.71 0 0 1-.66 2.3 2 2 0 0 1-1.76-.65 2.18 2.18 0 0 1 .18-1.78zM157.83 35.76c2 0 1.7 2 .37 2.58a1.64 1.64 0 0 1-1.39-.83 2.19 2.19 0 0 1 .37-1.48zM10.4 35.94l.83.09.55.55-.09 1-.65.55a2.19 2.19 0 0 1-1.2-.37l-.18-1.11zM165.49 36.13l.65.09.55.55v.65l-.55.55-.65-.09-.65-.65V37a2.27 2.27 0 0 1 .65-.87zM2.74 36.31c.77 0 .81.24 1 .83l-.65.65c-.62-.1-.71-.25-.92-.74zM36.91 39a4.27 4.27 0 0 1 2.86.55 5.86 5.86 0 0 1-.37 3 3.78 3.78 0 0 1-2.4.18c-1.73-.65-1.1-2.85-.09-3.73zM138.06 39c1.65-.11 3.08.92 2.49 2.58-.53 1.5-3.14 1.77-3.69.09V40a3.54 3.54 0 0 1 1.2-1zM29.8 39.08a1.84 1.84 0 0 1 1.94 1 1.26 1.26 0 0 1 .18 1 1.87 1.87 0 0 1-3 1.2c-1.42-1.18-.12-2.66.88-3.2zM146.37 39.17c1.71.4 2.54 2.81.55 3.41-2.59.79-2.43-2.29-1.11-3.32zM22 39.36a2.27 2.27 0 0 1 1.66.65c.26.79.35 1.73-.46 2.12-1.06 1-2.46-.15-2.4-1.57a2.56 2.56 0 0 1 1.2-1.2zM153.67 39.54l1 .09a1.37 1.37 0 1 1-1.76 1.84 1.52 1.52 0 0 1 .28-1.66zM14.47 39.63a1.37 1.37 0 0 1 1.29.83 1.5 1.5 0 0 1-.37 1.48c-.71.24-1.43.29-1.76-.37a1.15 1.15 0 0 1-.28-.92 2.08 2.08 0 0 1 1.12-1.02zM161.61 39.82l1 .18.37.46c0 .71 0 1-.46 1.29-.45.41-.88.2-1.39 0a2.31 2.31 0 0 1-.28-1.2zM6.62 40a1.72 1.72 0 0 1 1 .37l.09.18-.09.74c-.18.35-.31.38-.65.55-.67-.06-1.32-.51-.92-1.29zM33.68 42.86a1.93 1.93 0 0 1 2.12 1.2 2 2 0 0 1-2.68 2.49c-1.85-.94-.79-3.05.56-3.69zM133.62 42.86h2.12c.9 1 1.72 3.13-.18 3.78a2.67 2.67 0 0 1-2.68-.65l.09-2.4zM142.31 43l1 .18a1.85 1.85 0 0 1-.18 3.32 2.91 2.91 0 0 1-1.57-.09c-1.22-1.47-.86-2.65.75-3.41zM25.83 43.14a2.34 2.34 0 0 1 1.76.55c.16.39.43.85.28 1.29a1.63 1.63 0 0 1-3.14.37c-.55-1.19.48-1.83 1.1-2.21zM150.07 43.23l1 .18c.7.81 1.14 2.2-.18 2.77a1.51 1.51 0 0 1-2-.92 1.77 1.77 0 0 1 .37-1.66zM18.16 43.41l1.11.18c.28.35.73.76.55 1.29a1.77 1.77 0 0 1-.46 1c-.37.12-.65.3-1 .18-.75-.1-.83-.39-1.2-.83a2 2 0 0 1 .55-1.66zM158.1 43.51l1 .55c.2.7.26 1.32-.37 1.66a1.33 1.33 0 0 1-1.66-.09 1.43 1.43 0 0 1-.18-1l.37-.83zM10.59 43.69a1.9 1.9 0 0 1 1.2.74V45l-.65.83-.92-.09-.55-.83.18-.74zM165.68 43.88c.5 0 .64.11.83.46s.18.32.18.74l-.46.46a1.07 1.07 0 0 1-1.2-.28l-.09-.74zM2.92 44.06a1.11 1.11 0 0 1 .74.74c-.27.69-.69.77-1.29.37l-.09-.28c.12-.57.25-.56.64-.83zM37.1 46.73a2.8 2.8 0 0 1 2.68.92l-.09 1.94c-1.09 2.6-5.59-.43-2.59-2.86zM138.34 46.73l1.39.28c2 2.44-.51 4.77-2.77 2.58-.45-1.69.24-2.21 1.38-2.86zM29.62 46.92l1.48.18a5.31 5.31 0 0 1 .83 1.38c-.1 1.9-1.8 2.27-3.14 1.38a3.46 3.46 0 0 1-.37-1.66 3.2 3.2 0 0 1 1.2-1.28zM146.09 47a1.68 1.68 0 0 1 1.91 1.95l-.55 1c-1.07.39-2.14.42-2.59-.74a2.67 2.67 0 0 1 .09-1.48zM22 47.2l1.11.09a1.73 1.73 0 0 1 .37 2.49 2.89 2.89 0 0 1-1.2.37 1.65 1.65 0 0 1-1.2-.92 1.3 1.3 0 0 1 0-1.11c.16-.53.44-.63.92-.92zM153.95 47.29l.92.28a.93.93 0 0 1 .55.65v1l-.74.74a1.7 1.7 0 0 1-1.29-.28 1.18 1.18 0 0 1-.46-1.48c.23-.56.53-.61 1.02-.91zM14.38 47.47l.74.09.65.65V49a1.46 1.46 0 0 1-1.39.83c-.67-.4-1.06-.71-.83-1.75zM161.61 47.66c.44 0 .62 0 .83.18a.84.84 0 0 1 .46 1c-.14.5-.33.54-.65.83l-1-.18a1.4 1.4 0 0 1-.18-1.29zM6.43 47.84c.33 0 1 0 1.2.37.55 1-.66 1.34-1.39 1.11L6 48.67zM134.09 50.61c2.16-.15 3.71 2.09 2 3.41-1.35 1.07-4.22-.08-3.14-2.31.28-.6.67-.71 1.14-1.1zM142.21 50.79a1.78 1.78 0 0 1 2 2l-.55 1c-1.45.64-2.92.3-2.86-1.66.36-.77.68-.93 1.41-1.34zM150 51.07l1.11.18.55.74a2.45 2.45 0 0 1-.09 1.38c-1.1.88-2.74.7-2.68-1.2a2.47 2.47 0 0 1 1.11-1.1zM157.92 51.35c.41.07.79.08 1 .55a1.1 1.1 0 0 1 .18 1.11l-.65.65-.83-.09a1.15 1.15 0 0 1-.74-1.2c.29-.61.52-.69 1.04-1.02zM10.59 51.53l.83.28c.48.92.14 1.34-.65 1.75-.39-.15-.63-.21-.83-.55l-.18-.65.46-.74zM2.83 51.9a.92.92 0 0 1 .74.65l-.28.55-.74-.1-.18-.37c.13-.52.11-.43.46-.73zM129.93 54.48c2.1-.1 3 .35 3 2.4-.81 1.84-2.61 1.69-3.88.46l.09-1.94c.16-.49.43-.61.79-.92zM138.52 54.57a1.87 1.87 0 0 1 1.76 1.11 1.6 1.6 0 0 1-.18 1.66c-.89 2.12-4.57-.21-2.86-1.94.27-.55.76-.55 1.28-.83zM146.19 54.85a2.46 2.46 0 0 1 1.48.55c.2.56.45 1.24 0 1.75l-.74.74c-1.38.1-2.83-1.13-1.76-2.31.24-.46.56-.48 1.02-.73zM154 55.13l.83.18a1.81 1.81 0 0 1 .55 1.29l-.37.74-.46.28c-1.17.06-1.67-.36-1.66-1.48.34-.6.57-.69 1.11-1.01zM14.38 55.31l.55.09a.92.92 0 0 1 .65.55v1c-1.08.88-2.34.38-1.85-1.29zM161.61 55.5l.65.09c.76.31.68 1 .28 1.57l-.46.18-.92-.37-.09-.18a1.49 1.49 0 0 1 .37-1.2zM6.62 55.68c.75 0 .8.2 1 .74-.19.42-.45.79-.92.65-.7-.19-.64-.6-.46-1.2zM125.87 58.36c.95 0 2.07-.13 2.49.37 2.66 1.56-1.88 5.51-3.14 2.58l-.09-2.31zM134.27 58.45c1.16-.05 1.8.24 2.12 1 .53.86-.08 1.79-.46 2.31a2.45 2.45 0 0 1-2.59-.28 3.14 3.14 0 0 1-.18-2.21zM142.31 58.63a1.69 1.69 0 0 1 1.85 1.84c-.44.86-.64 1.38-1.94 1.38-1.21-.52-1.46-1.4-.92-2.67zM150.16 58.91a1.48 1.48 0 0 1 1.39.92 2.2 2.2 0 0 1-.09 1.2 1.84 1.84 0 0 1-1.39.55l-.55-.18A1.94 1.94 0 0 1 149 60c.28-.64.53-.74 1.16-1.09zM157.64 59.28a1.8 1.8 0 0 1 1.29.37 2 2 0 0 1 .09 1c-.42.61-.85.7-1.66.46a1.4 1.4 0 0 1-.18-1.29zM10.31 59.46c.87 0 1 .16 1.29.74v.18c-.15.3-.17.39-.46.55-1.07.9-1.36-.81-.83-1.47zM2.83 59.83c.53.16.45.21.55.74l-.74.09-.09-.18-.09-.28zM121.89 62.23l2.49.09.74.92c.17 3.07-2.11 3.45-3.88 2-.05-1.4-.06-2.37.65-3.01zM130.67 62.23c2 0 2.9 2.49 1.29 3.5s-3.65-.66-2.77-2.31c.31-.76.81-.83 1.48-1.19zM138.15 62.51c1.18-.05 1.76.27 2 1.11a1.79 1.79 0 0 1-.46 1.84c-1.07.39-2.14.42-2.59-.74s.4-1.72 1.05-2.21zM145.91 62.78a2.37 2.37 0 0 1 1.57.37c.51 1.16.34 2.37-1.29 2.4-.45-.28-.78-.33-1-.83s0-1 .18-1.57zM153.76 63.06l.83.09.55.55.18.46-.46.92-.92.18-.74-.46-.09-1zM14.19 63.24a1.28 1.28 0 0 1 .92.18l.37.28c.06.69 0 1-.55 1.29s-1-.18-1.29-.74l.18-.74zM161.89 63.34c.62.11.8.31.83 1-.28.51-.6.62-1.29.46l-.28-.55.37-.83zM6.53 63.61h.65l.28.55c-.14.28-.1.3-.37.46h-.47c-.5-.31-.34-.57-.09-1.01zM118 66.1a4.37 4.37 0 0 1 3 .55l.28.46c.08 1.54-.13 2.39-1.2 2.77a2.33 2.33 0 0 1-2.68-.83l.09-2.31zM126.7 66.1a1.92 1.92 0 0 1 .65 3.78c-2.62.56-2.7-2.8-.65-3.78zM134.64 66.29a1.8 1.8 0 0 1 1.85 1.94A2.17 2.17 0 0 1 135 69.7c-1.28 0-1.49-.62-1.94-1.48.11-1.3.63-1.49 1.58-1.93zM142.21 66.56c.76 0 1.22.16 1.48.65.71.73 0 1.87-.65 2.12a2.12 2.12 0 0 1-1.48-.18 2.36 2.36 0 0 1-.46-1.38l.37-.65zM150 66.84l.83.09.65.65a2 2 0 0 1-.37 1.38 1.45 1.45 0 0 1-1.94-.55l.09-.92zM158 67.12c.6.14.87.31.92 1l-.46.74-.83-.09c-.64-.5-.42-1 0-1.57zM10.68 67.3l.55.18.18.74c-.27.28-.44.55-.92.37l-.49-.46c.15-.6.27-.55.68-.83zM114.23 70a5 5 0 0 1 2.31.18c2.23 1-.17 5.53-3 2.67l.09-2zM122.82 70a2 2 0 0 1 1.39 3.5c-1.46.95-3.68-.68-2.77-2.31.28-.74.71-.86 1.38-1.19zM130.58 70.16c1.3 0 2 .62 2 1.94l-.18.65c-1.21 1.05-2.6 1-3.23-.65.08-1.23.61-1.46 1.41-1.94zM138.15 70.44c2-.15 2.7 2.12 1.11 2.77l-.74.09a1.22 1.22 0 0 1-1.2-.92v-1c.2-.51.47-.63.83-.94zM146.28 70.62l.83.18a1.64 1.64 0 0 1 .46 1.57 1.18 1.18 0 0 1-2.22 0 1.46 1.46 0 0 1 0-1.2zM154.13 70.9c1.63.46.5 2.53-.83 1.48l-.09-.65.55-.74zM14.65 71.08c.68.31.77.63.55 1.38l-.83.18-.37-.36c-.29-.45-.08-.74.18-1.11zM162 71.27a1.22 1.22 0 0 1 .65.65l-.37.55-.74-.09c-.23-.65-.13-.78.46-1.11zM6.71 71.54h.37l.09.18-.09.46-.28.09-.18-.27c-.05-.25-.02-.2.09-.46zM102.22 73.85c1.22 0 2.63-.1 3.33.37a4.68 4.68 0 0 1 .09 2.49 1.59 1.59 0 0 1-.92.92 2.46 2.46 0 0 1-2.86-.83c0-.78-.16-2.21.18-2.67zM110.53 73.85h1.94c2.52 2.74-.62 5.42-2.86 2.67l.09-1.66zM119 73.85l1.29.28c1.22 1.51.84 2.69-.83 3.5a1.9 1.9 0 0 1-1.94-1.29c-.62-1.45.7-2.1 1.48-2.49zM126.7 74c1.65 0 2.27 1.07 1.85 2.58-1.32 1.14-2.45.9-3.23-.65.08-1.19.57-1.4 1.38-1.93zM134.73 74.22a2.41 2.41 0 0 1 1.48.92c.13 1-.06 1.62-.83 1.94a1.76 1.76 0 0 1-1.39 0l-.55-.74c-.44-1.34.41-1.74 1.29-2.12zM142.21 74.5l1.11.18a1.89 1.89 0 0 1 .46 1.38l-.46.74c-1.26.41-2.26-.14-1.94-1.57zM150.07 74.77l.55.09.65.46-.09.83c-.24.54-.62.6-1.2.55l-.46-.46a1.28 1.28 0 0 1-.09-1zM157.73 75.14a1.28 1.28 0 0 1 1 .37 1.21 1.21 0 0 1-.37.92h-.09l-.65-.09-.28-.55zM10.5 75.33l.65.18.09.18-.09.28-.46.28-.46-.46zM90.86 77.72a5.13 5.13 0 0 1 3 .46 8.7 8.7 0 0 1 .18 2.4c-1.48 1.33-2.4 1.41-3.88 0l.09-2.12zM98.8 77.72l2.31.09.74.92c.2 3.09-3 3.9-3.79 1.66v-1.74zM106.93 77.72c2.8-.18 3.57 2.89 1.39 3.69-2.67.94-3.25-2.29-1.39-3.69zM114.87 77.82c1.93-.11 2.63 1.06 2.12 2.77l-1 .74c-1.48.49-3.28-1.32-2.12-2.58.22-.52.56-.64 1-.93zM123 77.91a1.79 1.79 0 0 1 1.85 1.94 1.88 1.88 0 0 1-1.94 1.48c-.6-.35-1-.42-1.29-1.11-.36-1.36.38-1.81 1.38-2.31zM130.85 78.09a1.62 1.62 0 0 1 1.57 1.66c-.21.7-.79 1.61-1.66 1.29-2.17-.2-1.34-2.36.09-2.95zM138.34 78.37c1.27-.05 1.77.66 1.48 1.84l-.65.65c-.94 0-1.39-.13-1.66-.74a1.59 1.59 0 0 1 .37-1.57zM146.37 78.55l.65.18.46.74-.28.74c-.19.28-.32.32-.65.46a1.46 1.46 0 0 1-1.11-.65v-.74a2.16 2.16 0 0 1 .93-.73zM153.95 78.92c.72 0 .72.21 1 .65l-.09.37c-.36.47-.6.44-1.2.28-.11-.31-.23-.48-.09-.83zM14.47 79.11l.46.09.28.37-.09.28-.28.18-.28.18-.37-.37-.19-.18zM161.89 79.29l.37.18-.09.46h-.09l-.46-.18zM87.53 81.6c3-.21 3.56 2.85 1.57 3.69-2.65 1.11-3.51-2.22-1.57-3.69zM95.38 81.6c2.69-.18 3.45 2.87 1.39 3.69-2.77 1.08-3.27-2.37-1.39-3.69zM103.42 81.6c2.15-.07 3.07 2.72 1.2 3.5a2.17 2.17 0 0 1-1.85 0l-.74-1c-.62-1.41.65-2.1 1.39-2.5zM111.36 81.69c2 .11 2.25 1.91 1.29 3.23-1.15.41-2.31.39-2.77-.83a2.9 2.9 0 0 1 .09-1.57 9 9 0 0 1 1.39-.83zM118.75 81.88c1.89-.14 3.06 2 1.48 2.86a1.83 1.83 0 0 1-1.85.18 2.19 2.19 0 0 1-.55-2.31zM126.51 82.06c1.69-.09 2.2.85 1.85 2.21l-.83.55a1.69 1.69 0 0 1-1.66-.37 1.93 1.93 0 0 1-.18-1.48c.19-.48.46-.6.82-.91zM134.46 82.24l1.11.18.37.55v1l-.65.74c-1.8.12-2-1.23-1.29-2.31zM142.49 82.43c.58.12.81.24 1 .74l.09.55a1.22 1.22 0 0 1-.55.65l-.74.18-.55-.46a.85.85 0 0 1-.09-1c.23-.46.43-.43.84-.66zM150.34 82.71c.32.11.38.12.55.37l.18.65-.37.37a.57.57 0 0 1-.65.09c-.37-.18-.38-.28-.55-.65.14-.34.15-.46.46-.65zM158 83.07l.46.18v.46l-.28.09-.28.09-.28-.37v-.09zM84.3 85.47c1.16.27 2.82 1.55 1.57 2.86-1.13 2.67-5.31-1.33-2.31-2.58zM91.6 85.56c1.26-.06 1.89.25 2.22 1.11a2.17 2.17 0 0 1-.37 2c-.69.31-1.6.74-2.31.09-1.66-.76-.41-2.58.46-3.2zM99.54 85.56c2.21-.08 2.46 1.93 1.48 3.23-1.75.64-3.33-.2-2.68-2.4zM107.3 85.66a2.37 2.37 0 0 1 1.76.65 3 3 0 0 1 .09 1.94c-1.21 1-2.16.91-3.14-.28a2 2 0 0 1 1.29-2.31zM115.15 85.75a2.24 2.24 0 0 1 1.57.65 2.12 2.12 0 0 1-.37 2.31c-1.05.31-2 .25-2.4-.83l-.09-.92c.34-.7.66-.82 1.29-1.21zM122.82 85.93a2.2 2.2 0 0 1 1.48.46l.28.46a2 2 0 0 1-.65 1.75 2.66 2.66 0 0 1-1.57 0 2.13 2.13 0 0 1-.65-1.48 2.91 2.91 0 0 1 1.11-1.19zM130.58 86.12a2 2 0 0 1 1.39.46c.31.91.17 1.62-.65 1.94a1.8 1.8 0 0 1-1.29-.18l-.37-1.2a2.43 2.43 0 0 1 .92-1.02zM138.61 86.3l.83.28.28 1a1.84 1.84 0 0 1-.92.83c-.58-.06-.81-.21-1-.65l-.09-.74.37-.55zM146.37 86.58c.4.08.45.1.65.37s.13.74-.09 1.11c-1.2.19-1.51-.57-.92-1.38zM154 86.95l.46.09.18.37c-.22.31-.22.33-.74.37-.15-.33-.13-.29-.09-.74zM87.9 89.53a1.75 1.75 0 0 1 1.94 1.11 1.56 1.56 0 0 1-.65 1.94 1.17 1.17 0 0 1-1.11.28c-1.07-.11-1.52-.79-1.48-2a2.6 2.6 0 0 1 1.3-1.33zM95.85 89.53a1.74 1.74 0 0 1 1.85 1.94 1.78 1.78 0 0 1-.92 1.2l-1.2.18c-1.27-.57-1.42-1.82-.65-3zM103.42 89.62l1.2.18a2.1 2.1 0 0 1 .55 2.31 2.49 2.49 0 0 1-1.66.74c-.94-.53-1.42-.94-1.29-2 .3-.72.6-.85 1.2-1.23zM111.27 89.71a2.21 2.21 0 0 1 1.48.55c.86 2.08-1 3-2.49 1.84l-.18-1.29a2.2 2.2 0 0 1 1.19-1.1zM118.75 89.9a2.21 2.21 0 0 1 1.66.46l.18 1a1.77 1.77 0 0 1-.46 1 3 3 0 0 1-1.48.09 1.56 1.56 0 0 1-.65-1.84zM126.88 90a1.33 1.33 0 0 1 1.39 1.48 1.4 1.4 0 0 1-.74.83l-.65.18-.83-.46a1.87 1.87 0 0 1 .18-1.75zM134.36 90.27l.83.09a1 1 0 0 1 .55 1.29l-.83.65c-.77-.1-1.11-.4-1.11-1.29zM142.49 90.45c.44.08.55.13.74.46v.83a1.74 1.74 0 0 1-.92.28l-.55-.74.18-.55zM150.16 90.82c.46.05.36 0 .55.28v.46l-.28.18-.46-.09c-.04-.51-.06-.48.19-.83zM83.93 93.59l1.39.18a2.05 2.05 0 0 1 .28 2.4 2.43 2.43 0 0 1-1.48.46c-.66-.24-1.52-.89-1.2-1.75.08-.8.48-.93 1.01-1.29zM91.69 93.59c1.67-.09 2.21.92 1.85 2.31-.56.47-1.52 1.17-2.31.37-1.29-.75-.34-2.17.46-2.68zM99.63 93.59a2.36 2.36 0 0 1 1.48.55 3.18 3.18 0 0 1 .28 1.29 1.6 1.6 0 0 1-2.68.65 2.81 2.81 0 0 1-.09-1.84zM107.3 93.68a1.87 1.87 0 0 1 1.76.92c0 1-.18 1.46-.83 1.75a1.58 1.58 0 0 1-1.66-.28l-.37-.92a4 4 0 0 1 .55-1.2zM115.24 93.77c.78.09 1.14.3 1.39.92a1.69 1.69 0 0 1-.37 1.48l-.65.28a1.46 1.46 0 0 1-1.39-.83l-.09-.83c.31-.61.53-.69 1.11-1.02zM122.82 94l.83.09.65.65c.06 1.07-.3 1.55-1.29 1.57l-.55-.18a1.93 1.93 0 0 1-.46-1.2 3.66 3.66 0 0 1 .82-.93zM130.67 94.14l.55.09.65.55-.09.74-.18.37a1.35 1.35 0 0 1-1 .09l-.55-.55c-.14-.72.11-.94.62-1.29zM138.34 94.42c.83 0 1.06.17 1.11.92-.38.48-1 .83-1.39.09-.21-.5.05-.7.28-1.01zM146.28 94.7c.46.05.36 0 .55.28v.46l-.37.18c-.37-.19-.38-.13-.46-.65zM80.42 97.55a2.29 2.29 0 0 1 1.39.74l.09 1a1.61 1.61 0 0 1-.83.92 1.34 1.34 0 0 1-1.76-.65 1.66 1.66 0 0 1 0-1.38l.65-.46zM88.09 97.55a1.42 1.42 0 0 1 1 .37l.46.55.09.83a1.61 1.61 0 0 1-.83.92c-.74.34-1.26-.08-1.76-.46a2.68 2.68 0 0 1-.05-1.38 2.89 2.89 0 0 1 1.09-.83zM95.57 97.65c1.27-.05 1.52.33 1.85 1.2l-.18.92-.74.55-1.29-.18-.46-.74a2 2 0 0 1 .09-1.2zM103.6 97.65l.92.18a1.86 1.86 0 0 1 .37 1.94l-.92.55a1.46 1.46 0 0 1-1.39-.83l-.09-.83c.31-.6.51-.66 1.11-1.01zM111.36 97.74a1.34 1.34 0 0 1 1.2.65 1.45 1.45 0 0 1 .09 1.11 1.54 1.54 0 0 1-1.29.74l-.83-.46c-.35-1.17-.03-1.57.83-2.04zM118.94 97.92l.74.09.55.55c.23.47.08.73-.09 1.2a2.18 2.18 0 0 1-1.14.24 1.14 1.14 0 0 1-.83-1.2l.37-.74zM126.6 98.11c.92 0 1.12.13 1.39.74l-.37.92-.65.09c-.5-.11-.55-.26-.83-.55l.09-.65zM134.55 98.29c1.32 0 1 1.15.18 1.48l-.65-.65a1.33 1.33 0 0 1 .47-.83zM142.4 98.57l.46.09.14.34-.09.28-.18.09-.37-.09-.28-.18v-.28zM76.45 101.61c1.36.07 1.56 1 1.11 2.12a1.57 1.57 0 0 1-1.11.28 1.09 1.09 0 0 1-.92-.74v-.92a2.75 2.75 0 0 1 .92-.74zM84.11 101.61l1 .18.55.92-.28.74a.93.93 0 0 1-.65.55 1.5 1.5 0 0 1-1.39-.37 1.87 1.87 0 0 1 .18-1.75zM92 101.61l.92.18a1.89 1.89 0 0 1 .46 1.38l-.37.65-1 .28c-.89-.51-1.32-1.17-.65-2.21zM99.45 101.71l.92.09c.52.23.71.57.74 1.29-.41.66-.71 1.06-1.76.83a1.42 1.42 0 0 1-.65-1.29zM107.58 101.71a2.57 2.57 0 0 1 1 .46l.18.92c-.2.29-.23.46-.55.65l-.55.28-.92-.46-.18-1a2.17 2.17 0 0 1 1.02-.85zM115.06 101.89a1.68 1.68 0 0 1 1.2.37l.09.74c-.11.5-.26.55-.55.83a1.51 1.51 0 0 1-1.29-.46v-.92zM123.19 102l.46.28c.31.2.33.24.37.74a2.08 2.08 0 0 1-.65.74l-.92-.37-.09-.18a1.57 1.57 0 0 1 .28-1zM130.67 102.26h.55c.2.28.38.39.28.74s-.18.38-.55.55l-.55-.28-.09-.65zM138.52 102.54h.48l.09.37-.37.37-.18-.18c-.19-.18-.1 0-.18-.37z"/>
        <circle cx="30.07" cy="87.46" r=".99"/>
        <circle cx="26.21" cy="83.61" r=".99" transform="rotate(-47.91 26.222 83.622)"/>
        <circle cx="22.3" cy="79.6" r=".99" transform="rotate(-48 22.246 79.812)"/>
        <circle cx="33.99" cy="91.15" r=".99" transform="rotate(-47.91 33.997 91.146)"/>
        <circle cx="33.94" cy="83.51" r="1.21" transform="rotate(-47.91 33.952 83.513)"/>
        <circle cx="30.07" cy="79.71" r="1.21" transform="rotate(-47.91 30.074 79.715)"/>
        <circle cx="26.11" cy="75.95" r="1.21" transform="rotate(-37.88 26.105 75.944)"/>
        <circle cx="22.3" cy="71.93" r="1.21" transform="rotate(-37.88 22.292 71.916)"/>
        <circle cx="37.86" cy="87.36" r="1.21" transform="rotate(-37.88 37.857 87.354)"/>
        <circle cx="41.8" cy="83.51" r="1.37" transform="rotate(-37.88 41.788 83.492)"/>
        <circle cx="45.61" cy="87.36" r="1.37" transform="rotate(-37.88 45.612 87.345)"/>
        <circle cx="49.52" cy="91.31" r="1.37" transform="rotate(-37.88 49.513 91.306)"/>
        <circle cx="37.86" cy="79.69" r="1.37" transform="rotate(-37.88 37.851 79.682)"/>
        <circle cx="33.99" cy="75.58" r="1.37" transform="rotate(-37.88 33.985 75.57)"/>
        <circle cx="30.07" cy="71.76" r="1.37" transform="rotate(-37.88 30.068 71.75)"/>
        <circle cx="33.99" cy="67.98" r="1.62" transform="rotate(-37.88 33.984 67.98)"/>
        <circle cx="37.86" cy="71.76" r="1.62" transform="rotate(-37.88 37.853 71.75)"/>
        <circle cx="41.8" cy="75.8" r="1.62" transform="rotate(-37.88 41.792 75.79)"/>
        <circle cx="45.73" cy="79.6" r="1.62" transform="rotate(-37.88 45.715 79.595)"/>
        <circle cx="49.52" cy="83.51" r="1.62" transform="rotate(-37.88 49.504 83.501)"/>
        <circle cx="53.45" cy="87.36" r="1.48" transform="rotate(-37.8 53.687 87.958)"/>
        <circle cx="57.3" cy="91.15" r="1.48" transform="rotate(-51.03 57.308 91.15)"/>
        <circle cx="61.1" cy="95.18" r="1.35" transform="rotate(-51.03 61.105 95.187)"/>
        <circle cx="65" cy="99.02" r="1.26" transform="rotate(-51.03 65.012 99.02)"/>
        <circle cx="68.96" cy="102.97" r="1.26" transform="rotate(-51.03 68.963 102.976)"/>
        <circle cx="72.73" cy="99.02" r="1.26" transform="rotate(-51.03 72.743 99.018)"/>
        <circle cx="68.86" cy="95.18" r="1.43" transform="rotate(-51.03 68.862 95.185)"/>
        <circle cx="65" cy="91.15" r="1.59" transform="rotate(-51.03 65.013 91.148)"/>
        <circle cx="61.1" cy="87.36" r="1.59" transform="rotate(-51.03 61.101 87.352)"/>
        <circle cx="57.3" cy="83.51" r="1.7" transform="rotate(-51.03 57.303 83.507)"/>
        <circle cx="53.45" cy="79.6" r="1.7" transform="rotate(-51.03 53.452 79.61)"/>
        <circle cx="49.52" cy="75.8" r="1.75" transform="rotate(-51.03 49.524 75.794)"/>
        <circle cx="45.61" cy="71.93" r="1.75" transform="rotate(-51.03 45.617 71.935)"/>
        <circle cx="41.8" cy="67.98" r="1.88" transform="rotate(-51.03 41.806 67.981)"/>
        <circle cx="37.86" cy="63.94" r="1.88" transform="rotate(-51.03 37.87 63.941)"/>
        <circle cx="33.94" cy="60.26" r="1.88" transform="rotate(-51.03 33.944 60.254)"/>
        <circle cx="29.85" cy="56.41" r="1.88" transform="rotate(-51.03 29.86 56.414)"/>
        <circle cx="34.1" cy="52.48" r="1.88" transform="rotate(-51.03 34.103 52.484)"/>
        <circle cx="37.86" cy="56.37" r="1.88" transform="rotate(-51.03 37.865 56.377)"/>
        <circle cx="41.8" cy="60.26" r="1.88" transform="rotate(-51.03 41.8 60.26)"/>
        <circle cx="45.61" cy="64.08" r="1.96" transform="rotate(-51 45.439 63.888)"/>
        <circle cx="49.52" cy="67.98" r="1.96" transform="rotate(-51.03 49.521 67.985)"/>
        <circle cx="53.45" cy="71.93" r="1.96" transform="rotate(-51.03 53.451 71.932)"/>
        <circle cx="57.3" cy="75.8" r="1.96" transform="rotate(-51.03 57.302 75.802)"/>
        <circle cx="61.1" cy="79.6" r="1.8" transform="rotate(-51.03 61.105 79.61)"/>
        <circle cx="68.94" cy="72.65" r="2" transform="rotate(-51.03 68.952 72.655)"/>
        <circle cx="80.06" cy="76.6" r="2" transform="rotate(-51.03 80.068 76.61)"/>
        <circle cx="65" cy="83.51" r="1.68" transform="rotate(-51.03 65.008 83.506)"/>
        <circle cx="68.96" cy="87.36" r="1.68" transform="rotate(-51.03 68.968 87.363)"/>
        <circle cx="72.73" cy="91.25" r="1.61" transform="rotate(-51.03 72.73 91.256)"/>
        <circle cx="76.65" cy="95.18" r="1.48" transform="rotate(-51.03 76.655 95.187)"/>
        <circle cx="26.21" cy="67.91" r="1.37" transform="rotate(-37.88 26.21 67.902)"/>
        <circle cx="41.69" cy="91.15" r="1.21" transform="rotate(-37.88 41.686 91.144)"/>
        <circle cx="53.45" cy="64.08" r="2.3" transform="rotate(-37.88 53.436 64.07)"/>
        <circle cx="49.62" cy="60.26" r="2.3" transform="rotate(-37.88 49.617 60.25)"/>
        <circle cx="45.73" cy="56.37" r="2.22" transform="rotate(-37.88 45.72 56.372)"/>
        <circle cx="41.8" cy="52.38" r="2.15" transform="rotate(-37.88 41.8 52.372)"/>
        <circle cx="57.3" cy="67.98" r="2.3" transform="rotate(-37.88 57.29 67.981)"/>
        <circle cx="61.32" cy="71.76" r="2.29" transform="rotate(-37.88 61.305 71.753)"/>
        <circle cx="65.09" cy="75.58" r="2.22" transform="rotate(-37.88 65.076 75.571)"/>
        <path class="cls-7" d="M132.24 46.92c-.6-.44-2.35-.09-3.14-.28a8.42 8.42 0 0 1 .18-3.69l3-.09.55-.55v-2.86l-.37-.46h-2.77l-.65-.74-.04-2.31.65-.65c.56-.41 2.38-.16 3.14-.28l.09-3.5-.28-.18-2.86-.09a3.94 3.94 0 0 1-.74-3l.65-.65c.6-.44 2.35-.09 3.14-.28v-3.6a9.06 9.06 0 0 0-3.14-.18l-.65-.74c-.13-3 .41-3.26 3.42-3.14a5.75 5.75 0 0 0 .46-3.23l-.55-.46c-.51-.38-2.12-.21-3-.18-.47-.78-.33-2.51-.33-3.78l-3-.09-.83-.74.09-2.77c.74-.49 2.54-.28 3.51-.55A9.09 9.09 0 0 0 129 5c-.86-.81-2.08-1-3.79-.74l-.09 3.32c-2.35 1.67-4.72-.36-3.6-3 .71-.48 2.18-.41 3.42-.37a10.75 10.75 0 0 0 .19-3.23l-.55-.46c-.58-.52-2.35-.3-3.24-.27L121.25-3l-.55-.46c-.54-.4-2.27-.21-3.14-.18-.33-.75.1-2.64-.37-3.32l-.46-.55-3.14.09q0 1.57-.09 3.14a3.89 3.89 0 0 1-2.86.65 2.67 2.67 0 0 1-.92-1 4.2 4.2 0 0 1 .18-2.58c.72-.43 2.36-.31 3.51-.28l.09-3.14-.74-.74a10.85 10.85 0 0 0-2.86.18 7.24 7.24 0 0 0-.28 3.14l-.65.46-2.4.09-.74-.83v-2.86l.09-.18h3.23a5 5 0 0 0 .46-3 3.07 3.07 0 0 0-1-.83 4.31 4.31 0 0 0-2.31.09c-.6.8-.6 2.08-.55 3.6a8.45 8.45 0 0 1-3.6-.09c-1.25-2.48 1.11-4.64-4-3.6A9 9 0 0 0 98-12a3.61 3.61 0 0 1-3.42.37 5 5 0 0 1-.37-3.5l-3.7-.18c-.51-.36-.31-2.21-.28-3l-.85-.69-2.22-.09L87-19c-.69.91-.5 2.18-.74 3.69h-3.53c-.51-.36-.31-2.21-.28-3a3.78 3.78 0 0 0-3-.74l-.83.83v2.77c.39.55 2.61.31 3.51.28a7.37 7.37 0 0 1 .28 3l-.83.74-2.12.09-.8-.66v-3.23l-3.79.09a9 9 0 0 0-.18 3.14l-.65.46c-.56.43-2.36.18-3 0-.41-.74-.21-2.53-.46-3.41a9.13 9.13 0 0 0-2.86-.28l-.46.46c-.59.52-.41 2.32-.37 3.41a12.43 12.43 0 0 0-3.6.18A7.79 7.79 0 0 0 63.05-8c-.73.54-2.71.56-3.79.46-.18 1.15.26 3.22-.65 3.69a6.18 6.18 0 0 1-3.23.09q0 1.66-.09 3.32l-.55.46c-.6.44-2.76.16-3.42.18.44.75 0 3.21-.37 3.78l-3.33.18c-.09.86.17 3.1-.37 3.6-.71.43-2.43 0-3.14.37s-.58 2.56-.37 3.5l.09.18h3a4.11 4.11 0 0 1 .65 3l-.92.83a4.66 4.66 0 0 1-2.86-.18l-.18-3.32c-.44-.46-2.06-.32-3-.28l-.74.92-.09 2.12.55.74 3 .18c.49.31.63 2.77.18 3.32l-.28.46h-3a5.14 5.14 0 0 0-.14 3.71 8.74 8.74 0 0 0 3 .18l.46.65a5.2 5.2 0 0 1 .18 2.4l-.55.74-3.23.18c-.12.78-.35 2.91.09 3.5.76.93 2.89-.28 3.51.92.4.53.19 2.22 0 2.77-.72.52-2 .5-3.33.46a5.37 5.37 0 0 0-.09 3.78l3 .09c.57.77.6 1.86.55 3.32l-.46.46-2.68.09-.65.74v2.49a4.73 4.73 0 0 0 3.79.55c-.07.65-.21 3 .18 3.6s2.14.41 3.14.37c.18.18 1 2.88.45 4a3.08 3.08 0 0 1 3.68-.09c1.28 1.28.3 3 .12 3.78-1.08.06.21 1.51.18.46.66-.43 2.82-.71 3.48 0s.33 3 0 3.55c-.8 0 .4 1.16.37.37.69-.41 3-.73 3.51.09a3.78 3.78 0 0 1 .3 3.07l-.18.18c-1 0 .37 1.38.37.37.78-.34 2.52-1 3.42-.09s-.44 2.61.46 3.5 2.43-.79 3.4.21.09 2.6.65 3.41c.33.55 2.59.75 3.42.37 1.24-2.13-.7-2.07.28-3a2.68 2.68 0 0 1 3-.74c1 .32 1.6 2.31.74 3.6l-.18.18c-1.14.06.39 1.36.37.37.73-.4 2.84-1.52 3.42-.28.68 1.46-1.42 4 1.66 4.51 3.33.56 2-3.56 3.33-4.42A2.9 2.9 0 0 1 86 74c.46.68.41 2 .37 3.23a5.05 5.05 0 0 0 3.6.28 7.24 7.24 0 0 0 .28-3.14 4.53 4.53 0 0 1 3.75-.24q0 1.52.09 3a4.22 4.22 0 0 0 3.42.37c.53-.74.5-2.06.46-3.41.77-.46 2.58-.31 3.79-.28l.09-.09v-3l.65-.65c.56-.43 2.36-.18 3 0 .39.69 0 2.54.46 3.23s1.9.51 3 .46l.55-.65a5.5 5.5 0 0 0 .09-3c-.46-.43-2.41-.22-3.23-.18a4.26 4.26 0 0 1-.55-2.86c.34-.38.49-.71 1-.92l2-.09.83.74.09 3H113c.57-.8.33-2.57.65-3.69l3.23-.18c.76-.46.41-2.48.55-3.5.77-.42 2.47-.2 3.51-.37.42-.78 0-2.7.46-3.5.57-.65 2.51 0 3.23-.46.9-.55.18-2.44.55-3.5.48-.44 2.51-.17 3.23-.28.57-.75.6-1.79.55-3.23l-.37-.55h-2.86l-.55-.74-.09-2.21.83-.83h3v3.32l.46.37 2.49.09.92-.92c.15-1.17.21-2.24-.55-2.7zM103-7.5h1.85a3.06 3.06 0 0 1 .83 1v1.66C104.49-1.93 100-5.15 103-7.5zm-.09 39.94l.83-.46a1.46 1.46 0 0 1 1.29.83l-.18 1.11-.74.46a1.32 1.32 0 0 1-1.39-.92zm-.23-7.44l.83-.74.92.18a1.1 1.1 0 0 1 .46 1.48c-.21.44-.44.49-.83.74-1.06-.06-1.44-.55-1.38-1.66zm.92 14.67a1.34 1.34 0 0 1 .65 2.58l-.92-.09a1.4 1.4 0 0 1-.74-.83l.09-1zm.56-20.67a1.43 1.43 0 0 1-1.66-1.2l.28-1 .83-.46 1.11.28.46.83a1.52 1.52 0 0 1-1.02 1.55zm-.83-7.66a1.48 1.48 0 0 1-.92-1.94c.23-.57.55-.7 1-1a3.71 3.71 0 0 1 1.39.28c.83 1.05.53 3.32-1.47 2.64zm-.83 36.8c.25-.55.59-.64 1.11-.92a1.55 1.55 0 0 1 1.39.65 1.32 1.32 0 0 1 .18 1.48 1.29 1.29 0 0 1-1.2.83c-.87.27-1.33-.6-1.66-1.2zm.92 6.64a1.76 1.76 0 0 1 .83 3.41c-2.49.64-2.54-2.47-.83-3.43zM102 2.37c.06-1.36.62-1.56 1.57-2 1.22 0 1.71.63 2 1.84-.57 2.21-2.62 2-3.57.16zM95.48-7.5a2.19 2.19 0 0 1 2.31 1c.46 1.65-.79 3.5-2.68 2.6s-.66-2.89.37-3.6zm.46 39.84l.83.28a1.83 1.83 0 0 1 0 1.11 1.18 1.18 0 0 1-1.39 0l-.09-.92zm-.65-6.55v-.65c.2-.42.36-.42.74-.65a1 1 0 0 1 .92 1c-.25.52-.5.84-1.2.65zm.55 14.11l.55.09h.18c.65.82.68 1.62-.46 2l-.92-.37a1.4 1.4 0 0 1 0-1.2c.19-.28.36-.31.66-.51zm.65-21.31a1.07 1.07 0 0 1-1-.09c-.43-.25-.5-.58-.46-1.29l.65-.65h.83L97 17v1zm-.65 28.78l.74.18c.78.34.86 1 .65 1.84l-.92.65-1.11-.28a1.57 1.57 0 0 1-.37-1.48c.24-.55.52-.6 1.02-.9zm.55-36.16c-1.63.07-1.89-1-1.48-2.21L96 8.46a2.08 2.08 0 0 1 1.29.83 1.48 1.48 0 0 1-.89 1.93zM97 3.57a3 3 0 0 1-2-.09 1.89 1.89 0 0 1 .29-2.86L96 .43l1.14.37a1.87 1.87 0 0 1 .37 2zM94.74 55.5l1.11-.65c1.26.06 2.48 1.45 1.48 2.49a1.46 1.46 0 0 1-1.94.55c-.5-.23-.63-.58-.92-1zm1.2 6.83a4.25 4.25 0 0 1 1.75.92C98.18 65 96.86 67 95 65.83s-.36-2.96.94-3.51zm-4.71-73.7l1.94.09a1.48 1.48 0 0 1 .83.92v1.57a2 2 0 0 1-3.7-1.48 2.68 2.68 0 0 1 .93-1.1zM92 36.31l.74.09.28.46c-.06.72-.25.82-.83 1-.9-.39-.96-.97-.19-1.55zm-.28-6.55v-.92l.37-.18.46.09.28.74v.09c-.29.19-.49.36-.92.18zm.46-7.38c-.44-.18-.56-.19-.74-.65v-.65l.83-.46a1.29 1.29 0 0 1 .83.92c-.33.51-.36.62-.95.84zm-.37 21.4h.83a1.54 1.54 0 0 1 .65 1.48l-.65.55-.83.09c-.54-.45-1-1-.46-1.66zm.65-28.87h-.65l-.65-.74-.16-.82.83-.74c1 0 1.11.34 1.48.92a1.32 1.32 0 0 1-.88 1.38zM92 51.16a3 3 0 0 1 1.29.46 3.25 3.25 0 0 1 .28 1.48 1.7 1.7 0 0 1-2.12.74c-.37-.46-.8-.83-.55-1.66.21-.63.5-.71 1.1-1.02zM93.44 6.8l-.83.65-1.11-.19c-.52-.24-.55-.55-.83-1a1.69 1.69 0 0 1 .83-1.57l.55-.18 1 .28a2 2 0 0 1 .39 2.01zm-2 52l.55-.18c1.26.05 1.62.67 1.94 1.66a4.59 4.59 0 0 1-.83 1.57 2.88 2.88 0 0 1-2-.18 1.85 1.85 0 0 1-.37-2zM92.61 0a3 3 0 0 1-1.75-.46c-.68-1.58-.34-2.35 1.11-3a2 2 0 0 1 1.94 1.38A1.9 1.9 0 0 1 92.61 0zM86.7-15.25h3.23a7.2 7.2 0 0 1 .28 3c-.89.72-3.1 1.5-3.79-.09a4.06 4.06 0 0 1 .28-2.91zM88.27 26l-.55-.37.09-.55.46-.28.55.37c-.04.59-.13.6-.55.83zm.46 7.1l-.09.46-.55.09-.28-.28.09-.28.28-.37.46.09zm-.65 7l.65.18c.34.22.42.4.46.92l-.65.55c-.72.31-1.15-.3-1.11-1.11zm.46-21.58a.83.83 0 0 1-1.1-.52l-.09-.65.74-.65c.52 0 .71.12.92.46l.28.55c-.29.4-.29.59-.74.8zm-.46 29l1 .28a1.87 1.87 0 0 1 .18 1.75l-.83.37c-.36.12-.64-.06-1-.18a1.5 1.5 0 0 1-.28-1.38c.24-.54.52-.62.94-.89zm-.55-36.62c-.35-.2-.41-.44-.55-.83.07-1 .49-1.11 1.2-1.48l.92.28a1.58 1.58 0 0 1 .37 1.48 1.23 1.23 0 0 1-1.94.51zm.37 44.09a2.31 2.31 0 0 1 1.75.74 4 4 0 0 1 .09 1.38 3.19 3.19 0 0 1-1.11.92 2.85 2.85 0 0 1-1.57-.46 2.68 2.68 0 0 1-.06-1.98zm1.76-52.16l-.66.74A2.09 2.09 0 0 1 86.89 3a2 2 0 0 1 0-1.57c.25-.53.6-.61 1.11-.9a1.56 1.56 0 0 1 1.2.37 1.52 1.52 0 0 1 .65.83zm-2-6.73c-2-.77-1-2.86.28-3.6l1.57.37c1.06 1.45.37 4.02-1.89 3.23zm-1 67.51c.26-.7.71-.84 1.29-1.2l1.05.19c.68.3.77.74 1.11 1.38a2 2 0 0 1-1.39 2 3.47 3.47 0 0 1-1.66-.37 2 2 0 0 1-.45-2zm-4-74.06l.83-.92 1.85.09a2 2 0 0 1 .92 2.49c-.81 2.47-5.17.79-3.62-1.66zm1.55 46.85l.83.28v.74l-.55.28-.65-.09-.19-.61a1.69 1.69 0 0 1 .56-.6zm-.19-7l.19-.46.46.09.09.28-.37.37zm.92-7.29a1.27 1.27 0 0 1-1.2-.09v-.83c.18-.3.28-.28.55-.46L85 21a1.84 1.84 0 0 1-.05 1.11zm-.37-7.29a1.12 1.12 0 0 1-1.2-.55l-.09-.92.92-.74a2 2 0 0 1 1.2.55v1a.92.92 0 0 1-.82.66zm-.46 29a1.77 1.77 0 0 1 1.2.46c.11.46.18.63 0 1a1.21 1.21 0 0 1-.74.65c-.94 0-1.26-.44-1.2-1.48zm.55-36.34l-1.2-.28a1.63 1.63 0 0 1 .46-2.58l.92.09a1.2 1.2 0 0 1 .92 1.11 1.76 1.76 0 0 1-.18 1.11zm-.06 43.44a1.61 1.61 0 1 1-1.81 1.4 1.61 1.61 0 0 1 1.82-1.44zm-1-51a2.16 2.16 0 0 1-.6-2.81l.83-.55c1.19-.06 1.81.21 2.12 1 .87 1.57-.83 2.54-2.3 2.32zm1 58.65a1.9 1.9 0 1 1-2.13 1.65 1.9 1.9 0 0 1 2.17-1.69zm-4.5-32.46l-.37-.46.09-.65.46-.28.55.09c.49.63.39 1.3-.69 1.26zm.97 6.89v.55a1.3 1.3 0 0 1-.92.28c-.36-.58-.3-.88.18-1.29l.55.09zm-.55-14.3l-.83-.37c-.32-1.09 0-1.34.83-1.75l.55.18a1.78 1.78 0 0 1 .46 1l-.09.37zM80.33 40h.46l.55.65a1 1 0 0 1-.46 1.2h-.65c-.45-.21-.55-.45-.74-.92a1.84 1.84 0 0 1 .84-.93zm-.18 7.47h.74a2.27 2.27 0 0 1 .92 1.2 2 2 0 0 1-.74 1.2h-1.2c-.77-.94-.76-1.7.27-2.4zm1.48-36.8l-.92.46a1.26 1.26 0 0 1-1.39-.65 1.36 1.36 0 0 1 .18-1.38l.74-.55.83.18a1.4 1.4 0 0 1 .74.83zM80 55a1.56 1.56 0 0 1 2 1.05l.09.18v.22a1.52 1.52 0 0 1-.49 1.17l-.13.18h-.12a1.58 1.58 0 0 1-1.23.2H80a1.58 1.58 0 0 1 0-3zm2-52.35a1.78 1.78 0 0 1-1.3 1.1 1.48 1.48 0 0 1-1.11-.37A1.53 1.53 0 0 1 78.85 2a3.48 3.48 0 0 1 1.2-1.47c1.25-.08 2.58.76 1.95 2.12zm-1.07 59.72a2 2 0 1 1-2.37 1.44 2 2 0 0 1 2.37-1.44zM80.14-7.5c1.47-.06 2.88 1.19 2 2.67a1.56 1.56 0 0 1-1.48 1c-.95.35-1.74-.63-2-1.29-.05-1.59.48-1.88 1.48-2.38zm-5.45-3l.83-.92h2.22l.74 1A2.13 2.13 0 0 1 77.1-7.5c-2.1.08-2.51-.87-2.41-2.95zm1.57 32.93a1.46 1.46 0 0 1-.65-1.11l.09-.37.65-.46.55.09.55.55.09.74a1.52 1.52 0 0 1-1.28.61zm1.2 6.83c-.22.54-.35.73-1 .83a1.23 1.23 0 0 1-.65-.65c0-.7.18-.7.55-1l.92.28zM75.8 36.5l.65-.37.46.09.55.46v.83a1.51 1.51 0 0 1-1.29.46l-.55-.83zm.37 7.19l1.2.18c.66.93.32 2.53-1.2 2l-.65-.55-.09-.28a1.57 1.57 0 0 1 .74-1.35zm1.48-29.15c-.94.67-3 .2-2.12-1.29.21-.44.44-.49.83-.74l1.11.28.37.65zm-.83-7l-.82-.1a7.17 7.17 0 0 1-.92-1.2l.18-.83c.25-.55.59-.64 1.11-.92a2.12 2.12 0 0 1 1.57.65A2.45 2.45 0 0 1 78 6.52c-.24.64-.6.71-1.18 1.02zm-1.71 44.68a1.59 1.59 0 1 1 1.17 1.92 1.59 1.59 0 0 1-1.17-1.92zM76.82 0c-.71.25-1.33-.4-1.75-.74-.44-1.55 0-2.09 1.2-2.77a2 2 0 0 1 2.12 1.38c.05 1.26-.47 1.99-1.57 2.13zm.26 58.48a1.86 1.86 0 1 1-1.48 3.33h-.07v-.07a1.85 1.85 0 0 1 1.6-3.25zM72-7.5c1.44-.05 2 .2 2.49 1a2.43 2.43 0 0 1-.74 2.58c-1.54.45-3.56-.26-2.86-2.4.27-.61.64-.79 1.11-1.18zm1 33.85a1.21 1.21 0 0 1-1.11-.18 1.89 1.89 0 0 1-.09-1.38l.92-.46.55.18a1.77 1.77 0 0 1 .46 1c-.16.49-.24.65-.73.84zm.74 6.83l-.28.55c-.17.29-.26.31-.55.46l-1-.28c-.34-.92-.13-1.33.55-1.75H73a2.23 2.23 0 0 1 .77 1.02zm-1.48 6.64c1.2-.06 1.63.37 1.57 1.57-.38.44-.74.92-1.57.65a1.4 1.4 0 0 1-.74-.83l.09-.65zm.65-20.94a2 2 0 0 1-1.29-.55c-.12-.52-.23-.91.09-1.29s.44-.42.83-.65c.68.19 1.07.28 1.39 1.11a1.41 1.41 0 0 1-.99 1.38zm-.74-7.66a1.7 1.7 0 0 1-.92-1.11c0-1.06.43-1.21 1-1.66 1.64-.08 2.1.91 1.66 2.31a1.79 1.79 0 0 1-1.71.46zm.37 36.06l.74.18.55.55c.62.7 0 1.46-.37 1.94a2.64 2.64 0 0 1-1.66-.09c-.8-1.18-.45-1.98.77-2.57zm.37-43.44c-1.27-.06-1.49-.61-1.94-1.48.06-1.23.58-1.47 1.39-1.94.92 0 1.47.22 1.75.83a1.4 1.4 0 0 1 .18 1.38c-.21.75-.62.97-1.35 1.22zM71 56a1.77 1.77 0 1 1 .58 1.74h-.05v-.05A1.74 1.74 0 0 1 71 56zm-3.14-19.6l.55-.55a2.26 2.26 0 0 1 1.39.37c.19.47.39.88.09 1.38l-.55.55a1.51 1.51 0 0 1-1.57-.37c-.15-.53-.26-.97.09-1.38zm.74-8.3l.92.18.46.65v.83l-.92.74-1-.28c-.65-.97-.3-1.6.54-2.12zm1.29-5.81l-.74.46-1.15-.18a1.52 1.52 0 0 1-.37-1.48c.2-.46.45-.56.83-.83a1.46 1.46 0 0 1 1.57.92zM68.6 43.41c1.52 0 1.79 1.12 1.39 2.31a2.26 2.26 0 0 1-1.66.46c-.32-.29-.55-.38-.74-.83-.52-1.01.32-1.55 1.01-1.94zm.55-28.22l-.83-.09-.74-.55a1.66 1.66 0 0 1 0-1.38c.22-.48.5-.56.92-.83.72 0 1.11.12 1.39.55l.37.65a1.55 1.55 0 0 1-1.11 1.65zm.65-7.75a2.31 2.31 0 0 1-1.48.09 1.79 1.79 0 0 1-1.11-1.11A3.94 3.94 0 0 1 67.49 5l.83-.55h1.11a2.21 2.21 0 0 1 1.11 1.84zm-.54 43.48a1.75 1.75 0 1 1-2.11 1.29 1.75 1.75 0 0 1 2.1-1.28zm1-51.32c-.94 1-2.29.35-3-.28a2.11 2.11 0 0 1 1.29-3c1.72-.01 3.01 1.92 1.71 3.28zm-2.36 59a2 2 0 1 1-.42 2.92l-.26-.22c0-.11 0-.21-.07-.31a2 2 0 0 1 .75-2.38zm-.87-70h3.23l.46.65.09 2.21c-.34.39-.48.71-1 .92a3.82 3.82 0 0 1-2.4-.18c-.61-.78-.41-2.59-.41-3.57zM63.7-7.5H66c1.37.92 1 2.64.09 3.69a3.92 3.92 0 0 1-1.94.09 1.63 1.63 0 0 1-1-.92l-.09-2.12zM66 26.17a1.29 1.29 0 0 1-1.2.65l-.92-.46a2.49 2.49 0 0 1-.09-1.75l.83-.55a2.18 2.18 0 0 1 1.48.55 1.58 1.58 0 0 1-.1 1.56zm.18 6.46v1a1.17 1.17 0 0 1-1 .83 1.77 1.77 0 0 1-1.11-.18l-.46-.83c0-.83.24-1.24.83-1.48l.55-.18a2.14 2.14 0 0 1 1.21.83zM65 19.16c-1.07-.32-1.54-.57-1.48-2a5.28 5.28 0 0 1 1-.92h.92c.36.31.63.43.83.92a1.06 1.06 0 0 1 0 1c-.22.64-.59.84-1.27 1zM63.79 40l.65-.46c1.23 0 1.58.3 1.94 1.11a2 2 0 0 1-.65 1.57 1.62 1.62 0 0 1-1.66-.22l-.55-.74zm.83 7.1a1.83 1.83 0 0 1 1.75.83 2.66 2.66 0 0 1-.09 1.75l-1.11.65-1.17-.28-.65-1.11c.04-1.18.5-1.39 1.28-1.84zm1.66-36.16a2 2 0 0 1-1.94.46 2 2 0 0 1-1-1.11 4.26 4.26 0 0 1 .28-1.48l.83-.55a3.47 3.47 0 0 1 1.66.37 2.4 2.4 0 0 1 .18 2.32zm-3.14-8.3C63.09.9 63.72.74 64.9.25c1.23.28 1.85.71 1.94 2.12-.84 1.63-2.77 2.29-3.69.28zM64 54.79a1.88 1.88 0 1 1-.56 2.6 1.89 1.89 0 0 1 .56-2.6zM59.18-2.79l.82-.83h2.12c.45.54 1.37 1.39.83 2.58-.43 1.34-3 1.91-3.6.37a4.39 4.39 0 0 1-.17-2.12zm2.68 41.23a1.76 1.76 0 0 1-1.39 0 1.66 1.66 0 0 1-.92-1l.19-1 .83-.83c1 0 1.47.11 1.75.74.68.75-.05 1.59-.47 2.08zm.09 7.84a3.15 3.15 0 0 1-1.75 0l-.74-1a3.93 3.93 0 0 1 .28-1.48l.83-.55c2.37-.14 2.43 1.75 1.38 3.02zm-2.4-17.16l.28-.74.83-.55.92.09a1.33 1.33 0 0 1 .83.83 1.16 1.16 0 0 1-.19 1.38 1.52 1.52 0 0 1-.83.65 1.55 1.55 0 0 1-1.85-1.66zm2.86-6.92c-.69 1.63-3 .86-2.86-1.2a4.75 4.75 0 0 1 1.2-1l1.29.28a1.7 1.7 0 0 1 .37 1.92zm-1.11-6.73c-1.05 0-1.74-.5-1.85-1.48s.48-1.44 1.11-1.84c1 0 1.55.12 1.85.74.97 1.04-.17 2.25-1.11 2.58zm-2-8.95l.18-1.29c.25-.56.62-.7 1.11-1 1.68-.06 2.06.58 2.4 1.84-.66 1.93-2.82 2.48-3.72.45zm.81 44.38a1.88 1.88 0 1 1 2 3.16 1.87 1.87 0 0 1-.76.28 2.47 2.47 0 0 1-.52.05l-.15-.07a1.88 1.88 0 0 1-.61-3.42zM55.3 1.08l.92-.83h1.85c3 2.47-1.55 5.41-2.59 3a4.38 4.38 0 0 1-.18-2.17zm.37 23.8c.23-.63.59-.78 1.11-1.11a2.43 2.43 0 0 1 1.85.74 2.67 2.67 0 0 1 .08 1.49 1.84 1.84 0 0 1-1.29 1.11c-1.1-.04-2.42-.91-1.75-2.23zm1.11-8.95a3.46 3.46 0 0 1 1.57.37 2.37 2.37 0 0 1 .28 2.4c-2.48 1.93-4.56-1.24-1.86-2.77zm-1.11 16.69c.26-.71.67-.78 1.29-1.11a1.81 1.81 0 0 1 1.85 1.29l-.18 1.29a2.31 2.31 0 0 1-1.66.74c-.77-.28-1.87-.98-1.3-2.21zm1 6.64c1.44-.06 1.88.44 2.22 1.48-.06 1.27-.61 1.48-1.48 1.94a2.59 2.59 0 0 1-1.75-.83 2 2 0 0 1 1.02-2.59zm-.37-27.67c-2-1-.62-3 .83-3.6l1.29.46c1.06 1.4.22 4.28-2.11 3.14zm.83 35.23a4.28 4.28 0 0 1 1.66.92 2.38 2.38 0 0 1 0 1.75 1.79 1.79 0 0 1-2.22.92l-1-.74c-.51-1.77.25-2.3 1.57-2.84zm-5.73-42l.83-.74 2 .09c3.08 1.3-1.06 5.88-2.68 3a5.24 5.24 0 0 1-.13-2.31zm1.4 30.48l1.29.18a1.71 1.71 0 0 1 .83 2.31 1.54 1.54 0 0 1-1.39 1c-.46.16-1-.13-1.39-.28a2 2 0 0 1 .66-3.21zm0-7.75c1.65-.09 2.64 1 2.12 2.4a1.73 1.73 0 0 1-2.22 1c-1.84-.69-1.13-2.62.1-3.4zm1-11.9c-2.74.74-3-2.74-.83-3.78a2 2 0 0 1 .85 3.78zm-.74 4.06c2.34.07 2.25 2.15 1.2 3.41-1.35.39-2.25.06-2.77-1.11-.03-1.61.51-1.79 1.59-2.3zM52.8 43c1.57-.07 2.39.64 2.4 2.12-.41 1.1-1.2 1.88-2.58 1.43-1.95-.73-1.09-2.84.18-3.55zM47.63 8.37l.55-.37h2.31a3.06 3.06 0 0 1 .83 1 2.94 2.94 0 0 1-.37 2.4 4.14 4.14 0 0 1-2.49.46l-.46-.27a4.62 4.62 0 0 1-.37-3.22zM48.92 39c2.25-.1 3.36 2.43 1.66 3.6-1.49 1-3.87-.48-3-2.4.3-.71.77-.85 1.34-1.2zm-1.39-5.35c0-1.67.59-1.87 1.66-2.4l1.11.28c1.5.66.94 2.4.18 3.32-1.48.43-2.41.06-2.94-1.21zm.09-15v-1.8c.23-.62.61-.77 1.11-1.11a2.86 2.86 0 0 1 2.4.83c.82 2.72-1.87 3.95-3.5 2.03zm0 6.18c.28-.8.77-.92 1.48-1.29 3.64-.08 1.94 5.21-.55 3.6a1.8 1.8 0 0 1-.92-2.36zm-4-4.43l.74-.74 2.12.09c1.32.57 1.38 3 0 3.6-.49.38-1.79.16-2.31 0a4.35 4.35 0 0 1-.51-2.99zm0 10.05V28.2l.92-.83c3.07-.16 3.73 2.22 1.94 3.78h-1.9zm0 5.44l.92-.74c3.13-.19 4.13 2.93 1.85 3.78l-1.9.07-.74-.74zm.28 10.79c-.45-.32-.46-2.86-.09-3.32l.46-.46h2.22a2.23 2.23 0 0 1 .92 1 3.76 3.76 0 0 1-.18 2.4 4.4 4.4 0 0 1-3.3.34zm6.47 3.87l-2.12.09-.25-.22a4.41 4.41 0 0 1-.46-2.77l1-.92h1.66c.99.8 2.04 3 .2 3.79zm4 3.8a2.15 2.15 0 1 1 .64-3 2.16 2.16 0 0 1-.61 2.96zm3.87 3.86l-.06.06h-.09a2 2 0 0 1-2.76-2.53v-.07l.06-.07a1.92 1.92 0 0 1 1.2-1l.13-.09h.23a2 2 0 0 1 1.36 3.69zm3.84 3.93a2.07 2.07 0 1 1 .62-2.86 2.08 2.08 0 0 1-.58 2.83zm3.93 4a2.13 2.13 0 1 1 .99-1.39 1.57 1.57 0 0 1-.29.68 2.11 2.11 0 0 1-.71.63zm5 2.28a2.32 2.32 0 0 1-.1.46c0 .05 0 .1-.07.15a2.27 2.27 0 0 1-.28.49v.07a2.29 2.29 0 1 1-.18-3.07l.16.17v.05c0 .05.08.09.12.15s0 .09.06.13a2.59 2.59 0 0 1 .26.83v.14a2.18 2.18 0 0 1 .02.35zM73.83 66a2 2 0 1 1 .6-2.79 2 2 0 0 1-.6 2.79zm4 4a2.15 2.15 0 1 1 .64-3 2.16 2.16 0 0 1-.65 3zm4.12 3.9a2.3 2.3 0 0 1-3.1-.26h-.08a2.3 2.3 0 1 1 3.23.4zM84 70.28a2.15 2.15 0 1 1 2.6-1.58 2.15 2.15 0 0 1-2.6 1.58zm6.2 2.84l-.55.55c-.46.35-1.9.21-2.68.18a3.73 3.73 0 0 1-.65-2.77A8.09 8.09 0 0 1 87.53 70c1.29-.06 2.12.07 2.49.92a4.65 4.65 0 0 1 .19 2.19zM93.91 69a1.91 1.91 0 0 1-2.49.92c-.69-.25-.92-.73-1.2-1.38 0-1.69.7-1.89 1.85-2.4 1.17.17 2.8 1.25 1.84 2.86zm3.79 4.7a5.88 5.88 0 0 1-3.33 0 4.49 4.49 0 0 1-.19-2.7l1-1c1.08 0 2-.06 2.4.55.49.36.68 2.65.11 3.12zm3.23-3.78L99 70l-.83-.74a2.44 2.44 0 0 1 1.2-3.14 2.51 2.51 0 0 1 2.4 1l.09 1.94zM99.08 36.4l.55-.37h.74l.55.55.09.83-.65.65a1.73 1.73 0 0 1-1.29-.28l-.18-.78zM99 28.93l.74-.65.55.09.55.55.09.74-.09.18a1.55 1.55 0 0 1-1.39.37 1.58 1.58 0 0 1-.45-1.28zm1.11-6.36a.7.7 0 0 1-.74-.18c-.45-.25-.5-.56-.46-1.29l.65-.65h.83l.55.65.09.83a1.22 1.22 0 0 1-.94.64zm-.65 21l1.29.18a1.94 1.94 0 0 1 .46 1.48 1.56 1.56 0 0 1-2 .65 1.59 1.59 0 0 1-.37-1.57zm1.39-28.78l-1 .28-.74-.28a1.57 1.57 0 0 1-.37-1.48c.24-.57.51-.63 1-.92a1.29 1.29 0 0 1 1 .37c.83.5.47 1.44.09 2.06zm-1.2 36.25a3 3 0 0 1 1.39.37 2.07 2.07 0 0 1 .09 2.21 2.15 2.15 0 0 1-2.12.18 1.78 1.78 0 0 1-.46-1.75c.23-.58.56-.66 1.08-.98zm-1.31-44.8c.06-1.21.55-1.42 1.39-1.84a2 2 0 0 1 1.66.92v1.2c-.6 1.81-2.46.93-3.05-.28zm.18 52.94l1.29-.65c1 .11 1.73.55 1.85 1.57a1.45 1.45 0 0 1-.37 1.29c-.95 1.86-3.82.27-2.77-2.2zm3-59.86c-.81 1.23-2.33.58-3.14-.09-.49-1.72.14-2.28 1.57-2.86 1.11.39 2.56 1.4 1.53 2.96zm.28-7.84c-.72 1.64-2.86 1-3.7 0a3.08 3.08 0 0 1 .65-2.86h2.49l.46.55a3.68 3.68 0 0 1 .06 2.32zm3.51 74.16a2.35 2.35 0 0 1-2.12.37c-1.78-.58-1.27-2.48-.37-3.5l.92-.28c1.89.34 2.35 1.69 1.53 3.41zM129 32.07v2.12a2.19 2.19 0 0 1-2.68.83 2.07 2.07 0 0 1-1.2-1.38 2.27 2.27 0 0 1 1.29-2.4 3 3 0 0 1 2.59.83zm-12.56 14.3c-1.44.44-3.58-.57-2.49-2.31.3-.65.73-.71 1.39-1 1.28.16 1.45.63 1.94 1.57a2.59 2.59 0 0 1-.84 1.74zm-1.66 8c-2-.73-1-3 .28-3.69a3.65 3.65 0 0 1 1.66.37c.99 1.35.53 4.23-1.94 3.34zM114 36.5c.28-.69.66-.77 1.29-1.11 1.05 0 1.74.5 1.85 1.48a1.28 1.28 0 0 1-.28 1.11 1.55 1.55 0 0 1-1 .74A2.25 2.25 0 0 1 114 38a2.67 2.67 0 0 1 0-1.5zm.18-8.21l1.11-.65a2.56 2.56 0 0 1 1.66.74 2.29 2.29 0 0 1 .09 1.48 1.37 1.37 0 0 1-1.29 1 1.17 1.17 0 0 1-1.11-.28c-.92-.42-.78-1.42-.51-2.29zm2.68-5.81a1.59 1.59 0 0 1-1.57.74c-.76-.28-1.86-1-1.29-2.21.23-.65.58-.77 1.11-1.11a4 4 0 0 1 1.48.28c.41.58.93 1.55.22 2.3zm.18-7.66c-.59.9-2.49 1-3-.09-1.14-1.24.35-2.36 1.29-2.77 1.37.12 2.6 1.45 1.67 2.86zm.09-7.66c-1 1.47-3 .62-3.51-.65 0-1.55.46-1.77 1.29-2.4 1.78-.11 3.32 1.36 2.18 3.06zM120.32 27c-1.67.47-3.19-.49-2.59-2.21.25-.61.61-.77 1.11-1.11a2 2 0 0 1 1.57.37c1.3.68.52 2.22-.09 2.95zm0 7.75c-1 .29-2 .2-2.4-.65-.54-.6-.24-1.37 0-2l1-.65c2.54-.13 2.46 2.03 1.4 3.29zm-1.11 4.33c1.34.12 2.58 1.36 1.75 2.67a1.88 1.88 0 0 1-3.33-.09c-.57-1.52.66-2.19 1.58-2.58zm0 7.66a2.62 2.62 0 0 1 1.94 1.11 2.86 2.86 0 0 1-.09 1.75 2 2 0 0 1-3.23.37c-1.19-1.54.24-2.76 1.38-3.24zM121 18.51a1.83 1.83 0 0 1-3.36-1.51c.28-.69.7-.83 1.29-1.2 1.63-.05 2.95 1.31 2.07 2.71zm.55 2.21c.28-.63.73-.76 1.29-1.11 1.43-.07 3 1 2.22 2.58-.81 2.37-4.9.9-3.54-1.47zm.18 7.38a9.75 9.75 0 0 1 1.39-.74 2.26 2.26 0 0 1 2 1.48c.13 2.18-2.63 3.32-3.42 1.48-.58-.66-.25-1.52.01-2.22zm.46 7.29l.92-.28c1.19.07 2.65 1.06 1.94 2.58-.83 2.63-5.23.53-2.88-2.3zm6.81-8.95l-.83.83a3.57 3.57 0 0 1-2-.09c-1.76-.78-.84-2.92.18-3.69h1.75l.46.28a4.17 4.17 0 0 1 .44 2.67zm-3-10.7a11.06 11.06 0 0 1 2.68.18 7 7 0 0 1 .28 3 3.87 3.87 0 0 1-2.86.65 2.56 2.56 0 0 1-.05-3.83zm-3.6-3.87c1.06-.05 1.91-.07 2.31.55.49.42.42 1.47.37 2.4-2.83 2.35-5.41-.82-2.63-2.95zm-1.2-1.29c-.53 1.78-2.62 1.24-3.6.37a2.25 2.25 0 0 1 1.11-3c1.67-.05 3.12.69 2.54 2.63zM121.06.25l.18.09v3.14a3.89 3.89 0 0 1-2.86.65 2.69 2.69 0 0 1-.28-3.87zm-7.57-3l.74-.83h2.86l.18.28c1 2.09-.31 4.31-2.68 3.6-1.05-.37-1.2-1.6-1.1-3.09zm-2.49 3c1.51-.09 3.18.82 2.4 2.49a1.82 1.82 0 0 1-2.4 1.2 2.09 2.09 0 0 1-1.29-1.29c-.05-1.55.45-1.77 1.29-2.4zm.09 34.31a1.33 1.33 0 0 1-.83-.83 1.25 1.25 0 0 1 0-1.11c.22-.49.53-.61.92-.92 1.31-.05 1.87.49 1.94 1.66-.31.83-.83 1.58-2.03 1.2zm.92 7.93a2.24 2.24 0 0 1-1.75-.65 2.1 2.1 0 0 1-.09-1.38c.24-.69.6-.78 1.2-1.11 1.05 0 1.68.47 1.75 1.48.24.75-.53 1.4-1.12 1.66zm-1.85-17.62a5.29 5.29 0 0 1 1-.92 2.13 2.13 0 0 1 1.75.65 2.7 2.7 0 0 1-.09 1.75l-.92.55c-.94 0-1.41-.27-1.66-.92a1.8 1.8 0 0 1-.08-1.1zm2.31-5.81c-1.05.31-2 .1-2.31-.83a1.44 1.44 0 0 1 0-1.2c.3-.69.71-.7 1.39-1 1.83.35 1.9 1.83.92 3.03zM111.18 47a4.27 4.27 0 0 1 1.48.28 2 2 0 0 1-.19 3 2.25 2.25 0 0 1-2.4-.65 2 2 0 0 1 1.11-2.63zM111 11.5c-1.86-.62-.95-2.59.09-3.32l1.11.09a1.72 1.72 0 1 1-1.2 3.23zm.18 43.07a1.93 1.93 0 0 1 .74 3.78c-2.7.59-2.56-2.76-.74-3.78zM107-3.62a5.65 5.65 0 0 1 1.94.28c1.84 2.66-.7 4.56-3 2.67A2.3 2.3 0 0 1 107-3.62zm-.37 39.94c.23-.41.51-.43.92-.65a1.72 1.72 0 0 1 1.39.74 1.52 1.52 0 0 1 0 1.2l-.46.65a1.66 1.66 0 0 1-1.39 0 1.2 1.2 0 0 1-.46-1.94zm-.09-7.56l.74-.74h.92l.65.55a1.5 1.5 0 0 1 0 1.29l-.65.65h-1a1.25 1.25 0 0 1-.64-1.76zm2.4-6.64a1.59 1.59 0 0 1-1 .83l-.83-.09a3 3 0 0 1-.83-1.29 2.38 2.38 0 0 1 1-1.38h.92c.43.37.73.47.83 1.2zm-2.59 22.14c.24-.53.55-.63 1-.92a3.2 3.2 0 0 1 1.29.28 1.69 1.69 0 0 1 .37 1.84 1.56 1.56 0 0 1-1.57.92c-.41-.23-.68-.26-.92-.65a1.26 1.26 0 0 1-.14-1.49zm2.68-29.79a1.61 1.61 0 0 1-.92.83 2.19 2.19 0 0 1-1.75-.65 2.45 2.45 0 0 1-.09-1.38c.24-.58.56-.67 1-1a2.25 2.25 0 0 1 1.75.65 2 2 0 0 1 .03 1.53zm-1.66 36.43a2.79 2.79 0 0 1 1.66.55 2.21 2.21 0 0 1-.46 2.67 1.94 1.94 0 0 1-2.49-.92c-.2-1.41.4-1.79 1.31-2.32zm-.28-43.26a1.69 1.69 0 0 1-1-2.21c.25-.61.61-.77 1.11-1.11l1.11.09a1.72 1.72 0 1 1-1.2 3.23zM106.75 62c-.57-.58-1.48-1.79-.55-2.77.25-.48.66-.56 1.11-.83l1.2.18c2.14.92 1.12 4.19-1.76 3.42zm3.6 4.06l-.65-.92a2.34 2.34 0 0 1 1.11-3c1.31-.06 2.15 0 2.59.83l.09 2.58a5.37 5.37 0 0 1-3.14.55zm6.84-4.33c-.39.65-1.82.51-2.86.46a3.14 3.14 0 0 1-.83-2.67 5.94 5.94 0 0 1 1.29-1.2 5.39 5.39 0 0 1 2 .28c.39.5 1.07 2.31.39 3.17zm3.88-3.87c-.39.65-1.82.51-2.86.46a2.52 2.52 0 0 1-.74-2.67c.23-.64.63-.82 1.11-1.2h1.75l.83.83a4.34 4.34 0 0 1-.1 2.61zm.92-3.41l-.65-.92a2.54 2.54 0 0 1 .92-3 5.83 5.83 0 0 1 2.68.37 18.27 18.27 0 0 1 .19 3.41zm3.14-8.76c-.34.39-.48.71-1 .92h-1.57c-2.13-.71-1.08-2.93.09-3.78a2.73 2.73 0 0 1 2.49 1zm1-2.86l-.83-.74a2.46 2.46 0 0 1 1-3.14 4 4 0 0 1 2.68.65v2.67l-.65.46z"/>
        <circle cx="68.96" cy="79.69" r="2" transform="rotate(-37.88 68.956 79.688)"/>
        <circle cx="72.73" cy="83.51" r="2" transform="rotate(-37.88 72.712 83.501)"/>
        <circle cx="76.65" cy="87.36" r="1.87" transform="rotate(-37.88 76.634 87.355)"/>
        <circle cx="80.73" cy="91.31" r="1.87" transform="rotate(-37.88 80.72 91.298)"/>
        <circle cx="80.47" cy="83.51" r="1.87" transform="rotate(-37.88 80.448 83.501)"/>
        <circle cx="83.89" cy="79.39" r="1.87" transform="rotate(-37.88 83.866 79.38)"/>
        <circle cx="76.64" cy="79.76" r="2.19" transform="rotate(-37.88 76.618 79.76)"/>
        <circle cx="72.83" cy="75.57" r="2.42" transform="rotate(-37.88 72.817 75.557)"/>
      </g>
    </g>
  </g>
</svg>
