<?xml version="1.0" encoding="utf-8"?>
<!-- Generator: Adobe Illustrator 22.1.0, SVG Export Plug-In . SVG Version: 6.00 Build 0)  -->
<svg version="1.1" id="Layer_1" xmlns="http://www.w3.org/2000/svg" xmlns:xlink="http://www.w3.org/1999/xlink" x="0px" y="0px"
	 viewBox="0 0 32 32" style="enable-background:new 0 0 32 32;" xml:space="preserve">
<path style="fill: #2D5998" d="M30.6,2.9l-11.7,0V0h-2.2L0,2.9v25.4l16.6,2.9h2.3v-2.9l10.9,0c0.6,0,1.3,0,1.8-0.4c0.4-0.7,0.3-1.5,0.4-2.2V4.3
	C32.1,3.4,31.4,2.8,30.6,2.9z M12.1,20.5c-0.6,0.3-1.5,0-2.2,0c-0.5-2.4-1-4.8-1.5-7.2c-0.4,2.3-1,4.7-1.5,7c-0.7,0-1.4-0.1-2.1-0.1
	C4.2,17,3.5,13.9,3,10.7c0.6,0,1.2-0.1,1.9-0.1c0.4,2.3,0.8,4.6,1.1,6.9c0.5-2.4,1-4.8,1.5-7.1c0.7,0,1.4-0.1,2.1-0.1
	c0.5,2.5,1,4.9,1.5,7.3c0.4-2.5,0.9-5,1.3-7.6c0.7,0,1.5-0.1,2.2-0.1C13.7,13.5,13,17,12.1,20.5z M30.3,26.6H18.9v-2.3h9.5v-1.5
	h-9.5V21h9.5v-1.5h-9.5v-1.8h9.5v-1.5h-9.5v-1.8h9.5V13h-9.5v-1.8h9.5V9.8h-9.5V8h9.5V6.5h-9.5V4.6h11.4V26.6z"/>
</svg>
