<?xml version="1.0" encoding="utf-8"?>
<!-- Generator: Adobe Illustrator 22.1.0, SVG Export Plug-In . SVG Version: 6.00 Build 0)  -->
<svg version="1.1" id="Layer_1" xmlns="http://www.w3.org/2000/svg" xmlns:xlink="http://www.w3.org/1999/xlink" x="0px" y="0px"
	 viewBox="0 0 50 50" style="enable-background:new 0 0 50 50;" xml:space="preserve">
<style type="text/css">
	.st0{fill:#FFFFFF;}
</style>
<g>
	<path style="fill: white" class="st0" d="M32.9,6.3L9.8,6.2v38.5h30.4l-0.1-31.4C37.9,11.3,34.9,8.7,32.9,6.3z"/>
	<path style="fill: black" d="M41.7,14.8c0-0.1,0-0.1,0-0.2c0,0,0-0.1,0-0.1c0-0.1-0.1-0.2-0.2-0.2c0,0,0,0,0,0l-9-9c0,0,0,0,0,0
		c-0.1-0.1-0.1-0.1-0.2-0.2c0,0-0.1,0-0.1,0c-0.1,0-0.1,0-0.2,0c0,0,0,0-0.1,0H10c-0.5,0-0.8,0.4-0.8,0.8v39.6
		c0,0.5,0.4,0.8,0.8,0.8h30.9c0.5,0,0.8-0.4,0.8-0.8L41.7,14.8C41.7,14.9,41.7,14.9,41.7,14.8z M38.9,14.1h-6.2V7.9L38.9,14.1z
		 M40.1,44.7H10.8v-38h20.3v8.2c0,0.5,0.4,0.8,0.8,0.8h8.2V44.7z"/>
</g>
<g>
	<g>
	</g>
	<g>
		<g>
			<path style="fill: black" d="M34.1,23.2H14.5c-0.5,0-0.8-0.4-0.8-0.8s0.4-0.8,0.8-0.8h19.6c0.5,0,0.8,0.4,0.8,0.8S34.5,23.2,34.1,23.2z"/>
		</g>
	</g>
	<g>
		<g>
			<path style="fill: black" d="M34.1,28.5H14.5c-0.5,0-0.8-0.4-0.8-0.8s0.4-0.8,0.8-0.8h19.6c0.5,0,0.8,0.4,0.8,0.8S34.5,28.5,34.1,28.5z"/>
		</g>
	</g>
	<g>
		<g>
			<path style="fill: black" d="M25.4,33.7H14.5c-0.5,0-0.8-0.4-0.8-0.8c0-0.5,0.4-0.8,0.8-0.8h10.9c0.5,0,0.8,0.4,0.8,0.8
				C26.2,33.4,25.9,33.7,25.4,33.7z"/>
		</g>
	</g>
</g>
</svg>
