<?xml version="1.0" encoding="utf-8"?>
<!-- Generator: Adobe Illustrator 22.1.0, SVG Export Plug-In . SVG Version: 6.00 Build 0)  -->
<svg version="1.1" id="Layer_1" xmlns="http://www.w3.org/2000/svg" xmlns:xlink="http://www.w3.org/1999/xlink" x="0px" y="0px"
	 viewBox="0 0 512 512" style="enable-background:new 0 0 512 512;" xml:space="preserve">
<style type="text/css">
	.st0{fill:#CB5255;}
</style>
<path style="fill:#CB5255" class="st0" d="M473.7,339.6c-2.9,1.8-11.1,2.9-16.3,2.9c-17,0-37.9-7.8-67.4-20.4c11.4-0.8,21.7-1.2,31-1.2
	c17,0,22,0,38.7,4.3C476.3,329.1,476.4,337.8,473.7,339.6L473.7,339.6z M178.6,342.2c6.6-11.5,13.3-23.7,20.2-36.8
	c16.7-31.7,27.4-56.7,35.3-77.1c15.8,28.7,35.4,53,58.3,72.4c2.9,2.5,5.9,4.8,9.2,7.3C254.7,317.3,214.2,328.6,178.6,342.2z
	 M233.2,41.9c9.3,0,14.7,23.4,15.1,45.5c0.4,22-4.7,37.3-11.1,48.8c-5.4-17-7.8-43.6-7.8-61C229.3,75.2,228.9,41.9,233.2,41.9z
	 M50.2,463.3c5.4-14.4,26.2-42.9,57.1-68.3c1.9-1.5,6.7-6,11.1-10.2C86.1,436.4,64.4,456.9,50.2,463.3L50.2,463.3z M482.6,309.3
	c-9.3-9.2-30.2-14-61.7-14.4c-21.4-0.3-47.1,1.6-74.2,5.4c-12.1-7-24.6-14.5-34.4-23.7c-26.3-24.7-48.3-58.9-62-96.4
	c0.8-3.6,1.6-6.6,2.3-9.7c0,0,14.8-84.4,10.8-112.9c-0.5-4-0.8-5.1-1.9-8.1l-1.2-3.4c-4-9.3-11.9-19.2-24.4-18.6l-7.3-0.2h-0.1
	c-13.9,0-25.2,7.1-28.1,17.6c-9.1,33.3,0.3,83,17.1,147.3l-4.4,10.6c-12.1,29.4-27.2,59-40.5,85.1l-1.8,3.4
	c-14,27.4-26.8,50.8-38.3,70.5l-11.9,6.3c-0.8,0.5-21.3,11.2-26.1,14.1c-40.6,24.3-67.6,51.9-72.1,73.8c-1.4,6.9-0.4,15.8,6.9,20
	l11.5,5.8c5,2.5,10.3,3.7,15.7,3.7c28.9,0,62.6-35.9,108.8-116.7c53.5-17.4,114.4-32,167.8-39.9c40.6,22.9,90.5,38.8,122.1,38.8
	c5.6,0,10.4-0.5,14.4-1.6c6-1.5,11.1-4.9,14.3-9.7c6-9.2,7.4-21.8,5.6-34.8C489,317.3,485.9,312.5,482.6,309.3L482.6,309.3z"/>
</svg>
