<?xml version="1.0" encoding="utf-8"?>
<!-- Generator: Adobe Illustrator 22.1.0, SVG Export Plug-In . SVG Version: 6.00 Build 0)  -->
<svg version="1.1" id="Layer_1" xmlns="http://www.w3.org/2000/svg" xmlns:xlink="http://www.w3.org/1999/xlink" x="0px" y="0px"
	 viewBox="0 0 31 31" style="enable-background:new 0 0 31 31;" xml:space="preserve">
<path style="fill: #D0482E" d="M29.6,3.5H18.3V0.4h-2L0,3.2v24.6l16.1,2.8h2.2v-3.5h10.6c0.6,0,1.3,0,1.8-0.3c0.4-0.6,0.3-1.4,0.3-2.1V4.9
	C31.1,4.1,30.4,3.5,29.6,3.5z M10.3,17.5c-0.8,0.4-1.7,0.4-2.6,0.3l0,4.1l-2.1-0.2l0-11.3c1.9,0.1,4.2-0.8,5.8,0.7
	C13,13,12.6,16.4,10.3,17.5z M29.3,26.2h-11V24h8.4v-1.4h-8.4v-1.8h8.4v-1.4h-8.4c0,0,0-1.4,0-2.1c1.4,0.4,3,0.4,4.2-0.4
	c1.3-0.8,2.1-2.3,2.2-3.8l-4.6,0V8.5l-1.8,0.4V6h11V26.2z M20.8,7.8c2.4,0.1,4.5,2.2,4.6,4.6h-4.6V7.8z M7.7,12.4
	c0.7,0,1.6-0.2,2,0.5c0.4,0.7,0.4,1.6,0,2.3c-0.4,0.7-1.3,0.7-2,0.7C7.7,14.7,7.7,13.5,7.7,12.4z"/>
</svg>
