<?xml version="1.0" encoding="utf-8"?>
<!-- Generator: Adobe Illustrator 22.1.0, SVG Export Plug-In . SVG Version: 6.00 Build 0)  -->
<svg version="1.1" id="Layer_1" xmlns="http://www.w3.org/2000/svg" xmlns:xlink="http://www.w3.org/1999/xlink" x="0px" y="0px"
	 viewBox="0 0 32 32" style="enable-background:new 0 0 32 32;" xml:space="preserve">
<style type="text/css">
	.st0{fill:#111418;}
</style>
<path class="st0" d="M15,31.4L6.1,14.7l-6-4.6L15,31.4z M31.9,10.1l-6,4.6l-8.8,16.7L31.9,10.1z M24.5,14.9H7.5L16,31.5L24.5,14.9
	L24.5,14.9z M6.4,13.4L0,8.6L3.9,4l5.5,2.7L6.4,13.4L6.4,13.4z M10.5,7.2l-2.9,6.5h16.9l-2.9-6.5H10.5z M25.6,13.4L32,8.6L28.1,4
	l-5.5,2.7L25.6,13.4L25.6,13.4L25.6,13.4z M21.5,6H10.5L5.1,3.3L10,1.2H22l4.9,2.1C26.9,3.3,21.5,6,21.5,6z"/>
</svg>
