<?xml version="1.0" encoding="utf-8"?>
<!-- Generator: Adobe Illustrator 22.1.0, SVG Export Plug-In . SVG Version: 6.00 Build 0)  -->
<svg version="1.1" id="Layer_1" xmlns="http://www.w3.org/2000/svg" xmlns:xlink="http://www.w3.org/1999/xlink" x="0px" y="0px"
	 viewBox="0 0 32 32" style="enable-background:new 0 0 32 32;" xml:space="preserve">
<path style="fill: #247146" d="M28.3,17.1h-5.1l0-2.5h5.1V17.1z M28.3,18.5h-5.1l0,2.5h5.1V18.5z M28.3,6.5h-5.1l0,2.5h5.1V6.5z M28.3,10.5h-5.1l0,2.5h5.1
	V10.5z M28.3,22.5h-5.1l0,2.5h5.1V22.5z M31.9,27.6c-0.1,0.8-1.1,0.8-1.7,0.8H18.9v3.3h-2.3L0,28.7V3.3l16.7-2.9h2.2v2.9l10.9,0
	c0.6,0,1.3,0,1.8,0.3C32,4.2,32,4.8,32,5.5l0,18.9C32,25.4,32.1,26.5,31.9,27.6z M13.3,21.9c-1-2-2-4.1-3-6.1c1-2,2-4,2.9-6
	c-0.8,0-1.7,0.1-2.5,0.1c-0.6,1.5-1.3,2.9-1.8,4.5c-0.4-1.5-1-2.9-1.6-4.3c-0.8,0-1.6,0.1-2.4,0.1c0.8,1.9,1.7,3.7,2.6,5.6
	c-1,1.8-1.9,3.7-2.8,5.5c0.8,0,1.6,0.1,2.4,0.1c0.6-1.4,1.3-2.8,1.8-4.3c0.4,1.6,1.2,3,1.8,4.6C11.6,21.8,12.5,21.8,13.3,21.9z
	 M30.3,5H18.9l0,1.6h2.9v2.5h-2.9v1.5h2.9v2.5h-2.9v1.5h2.9v2.5h-2.9v1.5h2.9v2.5h-2.9v1.5h2.9v2.5h-2.9v1.7h11.4V5z"/>
</svg>
